<?xml version="1.0" encoding="utf-8"?>
<!-- Generator: Adobe Illustrator 17.0.0, SVG Export Plug-In . SVG Version: 6.00 Build 0)  -->
<!DOCTYPE svg PUBLIC "-//W3C//DTD SVG 1.1//EN" "http://www.w3.org/Graphics/SVG/1.1/DTD/svg11.dtd">
<svg version="1.1" id="图层_1" xmlns="http://www.w3.org/2000/svg" xmlns:xlink="http://www.w3.org/1999/xlink" x="0px" y="0px"
	 width="1280px" height="800px" viewBox="0 0 1280 800" enable-background="new 0 0 1280 800" xml:space="preserve">
<g>
	<path fill="#2E2F2E" d="M315.797,371.904c0.2,0.057,0.356-0.001,0.471-0.174c0.255-0.142,0.429-0.423,0.754-0.447l-0.063,0.059
		c3.593-2.604,5.457-6.382,7.044-10.353c0.718-1.797,0.07-2.464-1.636-3.498c-2.637-1.6-5.531-0.048-8.004-1.421
		c-1.955-0.155-3.922-0.22-5.861-0.484c-3.581-0.488-6.074-2.402-7.235-5.902c-1.426-1.425-0.587-2.992-0.021-4.324
		c0.807-1.901,1.452-3.883,2.471-5.694c2.467-3.963,5.62-7.318,9.163-10.329c2.934-1.356,5.872-2.71,9.258-2.036
		c1.76,0.822,3.713,1.319,5.01,2.931c0.888,1.103,1.322,2.318,0.912,3.74c-0.11,0.29-0.27,0.55-0.462,0.791
		c-0.953,1.067-2.213,0.946-3.475,0.952c-6.385,0.031-12.239,4.082-14.638,9.962c-0.761,1.866-0.05,2.6,1.701,2.585
		c3.455-0.028,6.861,0.334,10.25,0.98c2.18,0.698,4.483,0.98,6.555,2.028c5.085,2.573,6.621,5.619,5.398,11.169
		c-0.513,2.327-1.167,4.669-3.216,6.245c-0.986,1.332-1.775,2.773-2.585,4.221c-1.392,2.491-3.542,4.499-6.283,5.19
		c-3.674,0.927-6.794,2.97-10.239,4.322c-1.097-0.221-2.154-0.678-3.308-0.569c-0.983,0.093-1.485-0.432-1.802-1.302
		c-0.865-2.375-0.879-2.37,1.503-3.71C310.201,375.128,312.47,372.622,315.797,371.904z"/>
	<path fill="#3E3F3F" d="M92.558,267.518c-1.698,0.379-3.184-0.898-4.869-0.621c-2.948-1.377-4.05-4.104-3.849-6.915
		c0.392-5.481,0.254-10.997,1.043-16.45c0.09-0.626,0.274-1.216,0.694-1.7c0.239-0.211,0.525-0.331,0.843-0.36
		c0.819,0.037,1.116,0.747,1.58,1.232c0.733,0.332,1.085-0.367,1.607-0.605c0.95-0.451,1.893-0.499,2.829,0.035
		c0.218,0.189,0.364,0.427,0.45,0.702c0.039,0.424-0.031,0.837-0.133,1.246c-0.088,0.397-0.214,0.783-0.356,1.162
		c-0.441,0.869-0.287,1.735,0.022,2.6c0.042,0.259,0.044,0.519,0.022,0.779c-0.069,0.518-0.098,1.04-0.162,1.563
		c-0.084,0.269-0.221,0.504-0.411,0.712c-1.233,0.944-1.575,2.156-0.744,3.459c0.839,1.315,0.939,2.878,1.647,4.217
		c0.265,0.438,0.01,1.163,0.741,1.346c5.973,1.168,12.022,0.829,18.044,0.821c4.472-0.005,8.95,0.155,13.424-0.337
		c2.16-0.238,4.356,0.229,6.481,0.741c1.754,0.422,3.305,1.245,4.414,2.755c1.342,1.827,0.932,2.887-1.18,3.657
		c-2.321,0.847-4.71,1.014-7.057,0.646c-2.914-0.456-5.882-0.335-8.703-0.132c-3.509,0.253-7.048-0.001-10.541,0.554
		c-1.218,0.194-2.486,0.071-3.73,0.093l0.043,0.018c-3.35-0.568-6.772-0.645-10.083-1.506
		C93.957,267.057,93.179,266.951,92.558,267.518z"/>
	<path fill="#3A3D3C" d="M148.506,244.934c0.514-3.499-0.338-6.988-0.087-10.482c0.111-1.545,0.102-3.117,0.71-4.589
		c0.873-0.763,1.784-1.262,2.888-0.414c0.365,0.485,0.645,0.99,0.334,1.613c-0.213,0.211-0.42,0.435-0.678,0.602
		c0.435-0.019,0.445-0.51,0.756-0.681c1.049-0.528,1.649,0.136,2.245,0.821c0.265,0.362,0.464,0.758,0.599,1.185
		c0.231,0.717-0.154,1.396-0.134,2.101c0,0.269-0.009,0.539-0.023,0.808c-0.287,0.652-0.144,1.304,0.008,1.957
		c-0.011,0.635-0.295,1.052-0.94,1.187c-1.085-0.196-2.158-0.134-3.132,0.353c1.515,1.061,3.249,2.241,2.232,4.799
		c-0.223,0.562,0.483,1.088,0.888,1.557c0.19,0.231,0.312,0.494,0.376,0.785c0,0.431-0.074,0.987-0.472,1.066
		c-1.131,0.223-1.954,0.298-0.536,1.508c0.582,0.497,0.208,1.415-0.337,1.964c-0.961,0.966-1.96,0.691-3.15-0.59
		c0.79,1.89,3.089,0.839,3.267,2.729c0.001,0.305-0.059,0.597-0.161,0.882c-1.288,3.912-2.131,4.459-5.338,3.469l0.028,0.02
		c-0.351-0.892-0.35-1.784-0.001-2.677l-0.028,0.055c1.029-1.643-0.06-3.546,0.644-5.229c-0.156-0.557-0.201-1.11,0.065-1.651
		C149.055,247.03,149.082,245.98,148.506,244.934z"/>
	<path fill="#545350" d="M93.512,259.92c-0.682-0.049-0.875-0.543-1.001-1.099c-1.012-2.899-1.778-5.813-0.516-8.845l0.002-0.006
		c-0.337-0.424-0.339-0.846,0.009-1.266l0.001-0.001c0.621-1.257-0.041-2.508-0.017-3.762c0.01-0.418,0.019-0.837,0.029-1.255
		c0.228-0.19,0.406-0.43,0.619-0.635l-0.004,0.001c-0.526-2.353,0.268-4.642,0.338-6.962c-0.832-3.369-1.284-6.721-0.393-10.199
		c0.469-1.831,1.428-3.744,0.117-5.709c-0.523-0.784,0.128-1.603,0.424-2.364c0.639-1.645,1.544-3.256-0.217-4.835
		c-0.463-0.415-0.522-1.121,0.032-1.678c3.424-3.445,1.66-7.548,1.226-11.377c-0.14-1.234-0.727-2.026,0.769-2.676
		c1.585-0.689,0.955-2.04,0.819-3.265c-0.178-1.605,0.189-2.767,2.218-1.992c-0.093,0.934,0.257,1.904-0.241,2.801
		c0.204,3.557-0.665,7.028-0.84,10.56c-0.247,4.993-0.788,9.971-1.088,14.962c-0.237,3.954-0.96,7.878-0.743,11.859
		c-0.423,4.254-0.938,8.501-1.242,12.763c-0.312,4.375-0.409,8.765-0.62,13.148C93.163,258.734,93.265,259.334,93.512,259.92z"/>
	<path fill="#404241" d="M151.688,229.865c-0.853-0.624-1.707,0.289-2.56-0.002c-0.2-2.775,0.765-5.474,0.474-8.277
		c-0.128-1.238,0.463-2.213,2.093-1.757c0.575,0.161,1.226,0.047,1.843,0.058c0.266,0.132,0.481,0.32,0.638,0.572
		c1.14,1.87,1.585,3.97,1.842,6.091c0.158,1.304,0.099,2.778-0.919,3.717C153.975,231.305,152.78,230.455,151.688,229.865z"/>
	<path fill="#414342" d="M147.82,257.566c0.709-0.07,1.457-0.019,2.118-0.236c1.152-0.378,2.382-0.752,1.872-2.512
		c-0.22-0.759,0.5-0.995,1.155-1.07c1.144,0.131,2.052,0.677,2.102,1.874c0.086,2.052,0.284,4.12-0.188,6.164
		c-0.42,1.82-1.376,2.732-3.327,2.073C148.111,263.064,148.277,260.13,147.82,257.566z"/>
	<path fill="#414443" d="M151.49,204.194c-1.099-0.313-2.116-0.835-2.949-1.585c-1.053-0.948-1.564-2.128-0.925-3.577
		c0.618-1.402,1.769-1.136,2.894-0.971c0.812,0.119,1.621,0.255,2.432,0.384c0.475,0.618,1.372,0.056,1.852,0.661l0.023,0.014
		c0.714,0.541,0.992,1.585,2.027,1.754l-0.023-0.027c0.366,1.224,0.819,2.509-1.362,1.955c-0.309-0.278,0.089,0.105-0.222-0.175
		c-0.142-0.127-0.272-0.264-0.401-0.4c0.052,0.141,0.196,0.216,0.258,0.354c1.448,2.092-0.866,1.587-1.53,2.221
		c-0.208-0.03-0.416-0.06-0.625-0.09C152.543,204.296,151.926,204.498,151.49,204.194z"/>
	<path fill="#5E5E58" d="M151.552,263.858c1.701,0.009,2.639-0.827,2.928-2.51c0.469-2.739,1.042-5.475-1.515-7.6
		c0,0-0.007,0.003-0.007,0.003c1.514-2.337,1.074-4.997,1.244-7.555l0.001-0.002c-0.269-2.503-0.954-5.007,0.03-7.504
		c0.47-0.314,0.519-0.794,0.511-1.297c-0.264-0.42-0.269-0.833,0.029-1.24c0.027-0.207,0.047-0.415,0.062-0.623
		c0.211-0.302,0.425-0.319,0.643-0.007c-0.226,8.582-0.226,17.163,0.159,25.74c0.047,1.043-0.248,1.799-0.966,2.467
		C153.649,264.189,152.631,264.756,151.552,263.858z"/>
	<path fill="#414342" d="M155.479,235.521c-0.214,0.002-0.429,0.005-0.643,0.007c-0.006-0.839-0.012-1.678-0.017-2.517
		c-0.218-0.199-0.383-0.451-0.617-0.634c-0.361-0.821-0.988-1.242-1.886-1.256c-0.209-0.419-0.418-0.837-0.627-1.256
		c0.309,0.01,0.628-0.025,0.925,0.04c0.916,0.2,2.052,0.555,2.482-0.47c0.421-1.003,1.283-2.28-0.133-3.317
		c-0.253-0.186-0.583-0.477-0.392-0.752c1.406-2.022-0.852-3.308-0.966-5.013c0.41-0.283,0.773-0.261,1.075,0.165
		c1.728,2.317,1.951,4.974,1.723,7.723c-0.163,1.969-0.694,3.914-0.367,5.913C155.553,234.489,155.719,235.088,155.479,235.521z"/>
	<path fill="#4D4E4B" d="M154.837,202.214c1.266,0.422,2.104,0.223,1.982-1.367c0.364,0.256,0.728,0.513,1.092,0.769
		c-1.043,3.554-1.292,3.736-4.349,3.187c1.39-0.381,1.005-1.627,1.251-2.565L154.837,202.214z"/>
	<path fill="#414342" d="M148.463,249.735c-0.125,1.754,0.726,3.628-0.644,5.229C148.05,253.223,147.38,251.371,148.463,249.735z"/>
	<path fill="#414342" d="M148.506,244.934c0.983,1.043,0.946,2.094,0.022,3.15C148.29,247.035,148.304,245.985,148.506,244.934z"/>
	<path fill="#414342" d="M147.848,254.909c0,0.892,0.001,1.784,0.001,2.677C147.121,256.694,147.108,255.801,147.848,254.909z"/>
	<path fill="#4D4E4B" d="M151.49,204.194c0.575-0.084,1.097-0.022,1.448,0.519c-0.409-0.013-0.819-0.027-1.228-0.04
		C151.64,204.511,151.567,204.352,151.49,204.194z"/>
	<path fill="#2A2B2A" d="M380.212,359.944c-2.946-2.82-3.957-2.726-7.22-0.741c-3.8,2.318-7.497,4.84-12.004,5.892
		c-3.756,0.879-7.481,1.891-11.259,2.701c-2.911,0.625-4.786-0.396-5.876-3.194c-0.556-1.423-0.493-2.264,1.297-2.698
		c8.451-2.038,15.367-6.944,21.862-12.393c5.408-4.535,5.336-8.398,0.349-13.467c-3.709-2.246-7.682-3.172-11.934-2.076
		c-2.83,0.729-5.188,2.541-7.789,3.81c-1.507,1.872-4.208,2.874-4.212,5.832c-1.335,2.701-3.235,5.113-4.168,8.018
		c-0.65,2.029-1.831,3.332-4.061,3.747c-1.57,0.292-1.806,1.109-0.572,1.963c1.621,1.124,1.969,2.682,2.001,4.334
		c0.107,5.945,2.447,10.458,7.974,13.062c3.323,1.451,6.705,1.589,10.223,0.716c1.388-0.345,2.6-1.294,4.108-1.162
		c1.545-1.143,3.389-1.473,5.198-1.872c5.261-1.159,9.811-3.822,14.177-6.812C380.259,364.268,381.085,362.337,380.212,359.944z
		 M359.003,340.315c0.499-0.144,0.996-0.352,1.504-0.393c0.992-0.075,2.167-0.537,2.786,0.675c0.572,1.118-0.524,1.58-1.068,2.277
		c-1.3,1.668-2.764,3.053-4.805,3.816c-0.952,0.355-1.847,0.967-2.648,1.611c-2.679,2.161-5.845,3.291-9.34,4.614
		C347.791,346.015,352.502,342.177,359.003,340.315z"/>
	<path fill="#CFD0CD" d="M383.71,356.89c-0.024-0.081-0.048-0.162-0.072-0.243c0.072-0.019,0.192-0.074,0.207-0.052
		C384.002,356.81,383.95,356.914,383.71,356.89z"/>
	<path fill="#CFD0CD" d="M384.175,354.84c-0.421-0.173-0.449-0.361-0.119-0.562c0.028-0.019,0.06-0.035,0.094-0.053
		C384.156,354.429,384.166,354.636,384.175,354.84z"/>
	<path fill="#CFD0CD" d="M384.144,345.431c-0.013,0.214-0.025,0.427-0.038,0.641c-0.389-0.22-0.377-0.415-0.057-0.59
		c0.003,0,0.003-0.003,0.006-0.006C384.081,345.459,384.112,345.447,384.144,345.431z"/>
	<path fill="#D1D3D1" d="M317.022,371.282c-0.131,0.352-0.395,0.479-0.754,0.447C316.519,371.58,316.77,371.431,317.022,371.282z"/>
	<polygon fill="#DBDCD7" points="300.553,351.093 300.792,351.228 300.686,351.334 	"/>
	<path fill="#202221" d="M452.607,372.35c-2.004-2.651-1.06-5.603-0.715-8.419c0.476-3.885,1.24-7.735,1.88-11.6
		c1.251-0.812,1.826-2.83,3.968-2.075c0.688,0.242,0.999-0.463,1.169-1.09c0.245-0.9-0.112-1.347-1.011-1.428
		c-0.281-0.072-0.53-0.199-0.757-0.374c0.307-2.857-0.07-5.82,1.292-8.522c1.646,0.321,2.285,1.67,3.014,2.931
		c1.05,2.184,0.832,4.49,0.658,6.791c-0.206,0.881-0.295,1.779-0.319,2.684c0.3,1.647-1.809,4.211,1.767,4.592
		c0.281-0.011,0.563-0.006,0.844-0.008c2.203,0.261,2.599-1.69,3.577-2.926c0.227-0.183,0.484-0.31,0.761-0.398
		c1.042-0.142,2.032-0.426,2.906-1.081c-0.436-0.45-1.107-0.652-1.246-1.341c-0.055-0.274-0.061-0.551-0.028-0.828
		c0.101-0.534,0.243-1.06,0.36-1.593c0.119-0.539,0.313-1.05,0.595-1.527c0.137-0.247,0.297-0.477,0.47-0.701
		c0.447-0.577,0.97-1.063,1.65-1.358c1.152-0.901,2.489-0.058,3.788-0.321c1.476-0.299,1.142,1.679,1.227,2.825
		c-0.156,1.525-1.198,2.592-1.963,3.804c-0.339,0.563-0.759,1.078-0.976,1.69c0.027,0.214,0.13,0.375,0.35,0.47
		c0.231,0.097,0.425,0.225,0.607,0.39c-0.315,2.005,1.731,3.704,0.746,5.793c-0.121,0.271-0.274,0.52-0.45,0.758
		c-0.189,0.232-0.41,0.428-0.649,0.602c-0.244,0.148-0.51,0.25-0.787,0.313c-1.108-0.142-1.974,0.117-2.226,1.377
		c-0.862,3.608,1.34,6.087,5.352,5.933c4.031-0.155,7.99-0.867,11.224-3.402c3.227-2.528,6.985-3.959,10.544-5.814
		c1.749,3.984,1.357,5.242-2.246,7.253c-1.688,0.411-1.473,2.13-2.068,3.243c-0.621,1.161-1.056,2.425-1.901,3.471
		c-1.108,0.594-2.216,1.187-3.323,1.781c-0.076,0.261-0.224,0.326-0.453,0.164c-2.482,0.761-5.156,0.636-7.583,1.649
		c-3.184,1.299-6.158,0.267-9.129-0.811c-1.71-1.189-3.626-2.122-4.943-3.824c-0.173-0.222-0.324-0.461-0.468-0.703
		c-0.154-0.227-0.294-0.466-0.436-0.701c-0.305-0.46-0.673-0.871-1.033-1.29c-0.665-0.81-1.233-1.71-1.421-2.723
		c-0.377-2.034-1.592-3.164-3.569-3.203c-1.966-0.039-1.63,2.062-2.454,3.107c-0.165,0.209-0.114,0.595-0.272,0.868
		c-0.054,0.348-0.107,0.696-0.16,1.043c-0.394,0.784-0.112,1.619-0.19,2.422c-0.112,1.15,0.331,2.905-1.35,2.982
		C455.719,373.297,453.715,374.745,452.607,372.35z"/>
	<path fill="#202120" d="M562.72,360.628c-2.123-1.222-4.347-1.306-5.983,0.525c-2.133,2.381-4.767,3.985-7.343,5.722
		c-3.602,2.173-7.691,3.2-11.504,4.884c-1.372,0.603-2.867,0.402-4.318,0.066c-2.239-0.521-4.428-1.219-6.58-2.019
		c-2.874-1.071-3.976-2.761-3.766-5.386c0.226-2.842,2.525-2.588,4.375-3.04c8.612-2.107,16.667-5.345,23.247-11.545
		c0.546-0.59,1.102-1.171,1.526-1.862c1.614-4.268,0.496-7.66-3.681-11.134c-0.254-0.21-0.518-0.411-0.795-0.59
		c-3.238-2.908-6.589-1.062-9.915-0.232c-0.311,0.537-0.477,1.206-1.096,1.486c-3.163,1.442-5.772,3.719-8.414,5.864
		c-3.351,2.72-6.668,5.647-8.429,9.733c-0.911,2.11-1.878,3.697-4.494,3.219c-0.038,0.515-0.138,0.832-0.069,1.112
		c0.578,2.302,1.498,4.56,0.688,7.016c-0.113,0.345,0.166,0.807,0.185,1.219c0.129,2.921,1.432,5.405,2.883,7.833
		c1.442,0.832,2.874,1.686,4.328,2.494c7.393,4.099,14.915,5.518,23.015,1.803c3.91-1.793,7.494-4.111,11.284-6.09
		c0.829-0.104,1.57-0.427,2.246-0.911c0.229-0.144,0.458-0.292,0.675-0.459c0.223-0.157,0.443-0.32,0.644-0.506
		c0.1-0.094,0.21-0.179,0.311-0.273c0.207-0.179,0.421-0.364,0.612-0.562c0.21-0.188,0.421-0.383,0.609-0.597
		C565.776,365.242,565.738,364.017,562.72,360.628z M532.639,345.984c2.23-1.997,4.139-4.416,7.214-5.333
		c2.013-0.6,3.715-0.314,5.173,1.178c1.614,1.655,1.542,3.866-0.565,4.607c-2.701,0.952-4.372,3.338-7.082,4.199
		c-3.838,1.222-7.453,3.103-12.013,4.161C527.325,350.965,529.926,348.414,532.639,345.984z"/>
	<path fill="#1D1F1E" d="M502.19,347.325c1.025-1.989,1.565-4.186,1.168-6.311c-0.369-1.979,0.194-3.002,1.879-3.758
		c0.652-0.293,1.22-0.771,1.826-1.164c0.398,0.289,1.062,0.069,1.295,0.675l-0.027-0.034c0.353,0.092,0.573,0.32,0.684,0.662
		l-0.052-0.049c0.759,0.752,1.419,1.708,2.729,1.314l-0.015-0.001c0.118-0.35,0.329-0.594,0.719-0.637l-0.017,0.043
		c0.093-0.432,0.394-0.635,0.797-0.726c0.13,0.005,0.259,0.011,0.389,0.016c2.087-0.912,4.092-2.072,6.484-2.035
		c0.732,0.011,1.456-0.087,2.095,0.406c0.874,0.675,1.466,1.473,1.348,2.653c-0.105,1.049-0.935,1.281-1.72,1.568
		c-2.756,1.01-5.285,2.381-7.674,4.131c-2.899,2.123-4.361,4.871-4.932,8.345c-0.792,4.819-1.797,9.603-2.711,14.403
		c-0.6,1.182,0.34,2.648-0.631,3.774c-1.667-0.318,0.037-2.499-1.674-2.741c0.929,0.272,0.997,0.974,0.757,1.668
		c-0.476,1.377-1.563,1.428-2.763,1.117c-0.789-0.375-1.69-0.492-2.418-1.01c-0.442-0.678-0.672-1.457-1.027-2.176
		c-0.169-0.448-0.368-0.884-0.639-1.285c-0.132-0.196-0.22-0.411-0.272-0.642c0.255-0.322,0.447-0.753,0.777-0.947
		c1.298-0.763,2.477-1.379,1.554-3.335c-0.303-0.642,0.236-1.793,0.121-2.732c-0.506-0.694-0.495-1.503-0.514-2.305
		C500.61,353.269,501.402,350.298,502.19,347.325z"/>
	<path fill="#242524" d="M499.045,366.787c0.871,0.651,0.535,1.654,0.732,2.502c0.655,0.759,1.731-0.046,2.405,0.647
		c0.827,0.441,1.62,0.383,2.196-0.368c0.474-0.619,0.187-1.134-0.477-1.465c-0.223-0.111-0.662-0.223-0.247-0.538
		c0.19-0.145,0.628-0.122,0.872-0.005c0.568,0.271,0.548,0.312,1.074,2.382c0.771-0.927-0.124-2.284,0.855-3.112
		c0.244,2.089-0.191,4.136-0.431,6.188c-0.175,1.497-1.069,2.119-2.553,2.042c-1.97-0.102-3.522-1.544-3.934-3.652
		c-0.099-0.508-0.142-1.039-0.322-1.518c-0.633-1.676-0.857,0.311-1.33,0.164c-0.169-0.103-0.228-0.251-0.18-0.441
		c-0.002,0.001-0.218,0.133-0.214,0.141c0.206,0.017,0.336,0.118,0.394,0.311c-0.105,0.765-0.573,1.124-1.316,1.176l0.01-0.006
		c-0.658,0.818-1.681,0.877-2.562,1.23c0.538-1.973,0.681-4.094,2.148-5.719c0.758-0.84-0.238-1.748,0.055-2.622
		c0.931,0.061,0.867,1.155,1.569,1.41c0.208,0.004,0.417,0.006,0.625,0.007C498.772,365.88,498.663,366.458,499.045,366.787z"/>
	<path fill="#3E403F" d="M97.642,191.53c-0.954,0.844-1.466,1.551-0.842,3.088c0.926,2.282,0.147,3.162-2.9,3.829
		c1.672,0.788,2.123,1.872,1.738,3.439c-0.464,1.886,0.005,3.844-0.111,5.788c-0.181,3.036,0.113,3.054-2.612,4.555
		c2.307,1.273,3.113,2.873,1.191,5.055c-0.259,0.294,0.339,1.103-0.203,1.428c-1.359,0.816-0.622,1.459,0.088,2.134
		c0.849,0.806,1.29,1.408,0.081,2.495c-0.976,0.877-0.054,2.569-0.816,3.777c-0.492,0.78-0.422,1.423,0.178,2.446
		c0.533,0.907,0.394,2.498,0.188,2.629c-2.122,1.343,0.184,2.224,0.226,3.287c-0.3,3.164-2.747,4.669-4.934,6.385
		c-0.51-0.022-0.975-0.168-1.404-0.447c-0.27-0.237-0.477-0.515-0.632-0.836c-1.391-3.279-0.547-6.733-0.801-10.101
		c0.314-8.519,1.474-16.993,1.599-25.513c0.144-9.816,3.048-19.341,2.818-29.179c-0.03-1.267,0.362-2.491,0.856-3.632
		c0.958-2.213,2.585-2.759,4.972-1.807l-0.035-0.06c0.76,0.236,1.623,0.3,1.986,1.196c0,0-0.017-0.007-0.017-0.007
		c2.496,3.138,3.323,6.555,1.857,10.418c-0.328,0.863-0.394,1.826-0.581,2.743c-0.733,2.048-0.106,4.352-1.193,6.333l0.005-0.017
		C98.095,191.125,98.019,191.512,97.642,191.53z"/>
	<path fill="#6E6D69" d="M98.342,190.971c-0.7-2.318,0.22-4.33,1.193-6.333c-0.047,1.232-0.095,2.463-0.142,3.695
		c0.119,0.887,0.388,1.805-0.516,2.479C98.706,190.889,98.528,190.942,98.342,190.971z"/>
	<path fill="#4D4E4B" d="M156.843,200.874c-1.613,0.498-2.056-0.355-2.027-1.754C155.843,199.298,156.657,199.723,156.843,200.874z"
		/>
	<path fill="#6E6D69" d="M97.642,191.53c0.235-0.192,0.47-0.385,0.705-0.577c-0.029,1.033-0.058,2.067-0.087,3.1
		c0.177,0.158,0.225,0.301,0.144,0.428c-0.075,0.119-0.148,0.179-0.218,0.179c-0.155,0.04-0.308,0.085-0.46,0.135
		C97.698,193.708,97.67,192.619,97.642,191.53z"/>
	<path fill="#4D4E4B" d="M154.793,199.106c-0.692-0.01-1.406,0.039-1.852-0.661C153.701,198.267,154.342,198.421,154.793,199.106z"
		/>
	<path fill="#383B3A" d="M173.129,271.919c-0.94-2.081-1.511-4.166-1.466-6.547c0.122-6.446-0.249-12.904-0.038-19.345
		c0.136-4.136-0.469-8.273,0.135-12.395c1.273-1.471,2.577-2.841,4.728-1.435c0.485,0.586,0.74,1.267,0.844,2.012
		c-0.022,0.947,0.206,1.844,0.489,2.745c0.195,0.622,0.092,1.245-0.459,1.701c-0.353,0.292-0.329,0.677,0.07,0.926
		c0.134,0.23,0.201,0.482,0.204,0.745c-0.257,0.403,0.128,0.676,0.228,1.013c0.134,0.392,0.178,0.794,0.167,1.205
		c-0.086,0.954-0.054,1.912-0.101,2.864c-0.009,0.253-0.042,0.506-0.083,0.755c-0.037,0.36-0.074,0.724-0.061,1.091
		c0.019,0.244,0.002,0.486-0.031,0.729c-0.099,0.486-0.291,0.932-0.567,1.342c-0.135,0.194-0.285,0.379-0.43,0.56
		c-0.449,0.689,0.014,1.028,0.529,1.35c0.235,0.148,0.442,0.318,0.642,0.508c0.202,0.212,0.359,0.447,0.488,0.706
		c0.099,0.281,0.14,0.569,0.142,0.865c-0.025,0.295-0.095,0.581-0.193,0.858c-0.528,1.002-0.117,1.992-0.067,3.014
		c0.101,2.086-0.271,4.493-0.007,6.221c0.308,2.021-0.214,4.018,0.301,5.935c0.153,0.57,0.192,1.091-0.203,1.413
		c-0.991,0.81-2.198,1.362-2.885,2.521l0.023,0.006c-0.282-0.494-0.917-0.331-1.274-0.684
		C173.878,272.372,173.503,272.146,173.129,271.919z"/>
	<path fill="#383B3A" d="M209.442,221.173c0.633,0.417,1.265,0.833,1.898,1.249c0.369,0.387,0.417,0.961,0.711,1.356
		c1.357,1.821,0.981,2.923-1.193,3.642c-0.858,0.284-1.604,0.922-2.582,0.908c-1.204,0.74-2.595,0.47-3.892,0.664
		c-2.734,0.411-5.557,0.249-8.184,1.321c-0.361-0.195-0.616-0.483-0.735-0.884c0.031,0.374,0.431,0.689,0.171,1.11
		c-1.251,0.665-2.205,0.183-2.961-0.825c-0.991-1.319-2.272-2.418-2.995-3.94c-0.038-0.3,0.003-0.59,0.118-0.869
		c1.323-1.127,2.479-0.231,3.666,0.304c0.535-1.272,1.21-2.203,2.712-1.112c0.311,0.363,0.691,0.619,1.163,0.729
		c-0.031-0.013-0.061-0.028-0.092-0.039c-0.265-0.092-0.523-0.196-0.756-0.377c-0.219-0.194-0.346-0.427-0.39-0.709
		c0.131-0.261,0.313-0.472,0.551-0.638c0.495-0.296,1.009-0.555,1.518-0.825c1.221-0.607,2.583-0.072,3.83-0.477l-0.039,0.02
		C204.384,220.681,206.848,220.124,209.442,221.173z"/>
	<path fill="#3F4140" d="M195.657,229.863c0.823,0,1.645,0,2.453,0c0.098-0.801-0.879-0.589-0.875-1.519
		c3.656,0.068,7.37,0.642,10.984-0.362c0.361,0.224,0.377,0.47,0.048,0.738c-4.981,1.438-10.192,1.732-15.198,3.017
		c-3.408,0.875-6.821,1.802-10.107,3.04c-1.402,0.528-2.93-0.268-4.148,0.769c-0.407,1.09,0.022,2.215-0.139,3.316
		c-0.115,0.782-0.006,1.72-1.234,1.681c-0.408-0.816-0.943-1.342-1.948-0.933c-0.785,0.319-1.115-0.215-1.38-0.803
		c-0.24-0.534-0.053-1.037,0.299-1.415c0.382-0.41,0.741-0.017,1.059,0.205c0.505,0.353,1.03,0.618,1.731,0.623
		c0.68-1.446-1.881-2.53-0.39-3.958c0.697-1.572,2.034-0.899,3.174-0.913c0.378-0.016,0.724-0.149,1.056-0.319
		c0.44-0.287,0.699-0.722,0.962-1.159c0.315-0.477,0.689-0.88,1.266-1.035c3.081-0.258,4.758-1.586,5.536-4.358
		c0.164-0.585,0.311-1.253,1.198-1.011c1.553,1.096,2.473,2.752,3.649,4.176c0.66,0.799,1.228,1.091,2.002,0.221L195.657,229.863z"
		/>
	<path fill="#494A45" d="M177.441,240.543c0.925-0.79,0.552-1.869,0.619-2.844c0.055-0.794-0.118-1.652,0.754-2.154
		c0.916,2.859,0.293,5.8,0.384,8.695c0.177,5.623,0.024,11.255,0.077,16.883c0.028,3.013,0.151,6.027,0.322,9.036
		c0.178,3.145-0.783,3.912-4.094,3.118c1.401-1.08-1.15-1.603-0.198-2.786c1.083,0.705,2.307,1.129,2.951-0.625
		c-0.55-0.552-1.026,0.229-1.503-0.067c-0.16-0.206-0.168-0.438,0.051-0.542c1.674-0.799,1.429-2.531,1.53-3.827
		c0.136-1.745-1.545-0.591-2.572-1.002c0.864-1.177,3.094-1.611,2.214-3.541c-0.628-1.377,0.436-2.957-0.639-4.174
		c-1.234-1.397-0.188-2.155,0.727-2.984c0.161-0.137,0.216-0.276,0.164-0.416c-0.052-0.141-0.104-0.211-0.157-0.211
		c-0.003-0.208-0.006-0.415-0.008-0.623c-0.218-0.2-0.406-0.43-0.625-0.63l0-0.001c-0.682-0.718-1.466-1.411-0.627-2.509
		c0.911-0.396,1.297-0.966,0.628-1.887v0c-0.362-0.418-0.361-0.836-0.002-1.255h-0.001c0.928-1.255,0.599-2.514,0.01-3.774
		c-0.005-0.416-0.011-0.832-0.016-1.248c-0.143-0.142-0.189-0.283-0.139-0.422C177.344,240.613,177.393,240.544,177.441,240.543
		L177.441,240.543z"/>
	<path fill="#51524D" d="M208.267,228.721c-0.016-0.246-0.032-0.492-0.048-0.738c1.512-0.009,2.2-1.722,3.75-1.789
		c0.45-0.019,0.579-0.834,0.098-1.239c-0.834-0.702-0.696-1.63-0.728-2.532c1.206,0.33,1.442,1.467,1.749,2.383
		c0.593,1.774,0.06,2.631-1.805,3.215C210.301,228.327,209.274,228.492,208.267,228.721z"/>
	<path fill="#494A45" d="M174.253,272.598c0.561-0.025,1.024,0.131,1.274,0.684C174.953,273.332,174.533,273.096,174.253,272.598z"
		/>
	<path fill="#4C4C49" d="M88.876,241.171c0.393-0.06,1.127-0.113,1.128-0.181c0.017-0.856-1.052-0.13-1.285-0.989
		c0.809-1.005,2.283-0.945,3.327-1.657c0.819-0.558,1.491-0.891,0.769-2.145c-0.539-0.937,0.643-0.506,1.035-0.719
		c0.059,2.599-0.405,5.114-1.216,7.573c-0.882-1.019-2.076-0.484-3.133-0.626c-0.13-0.054-0.259-0.107-0.389-0.16
		C88.798,241.951,88.582,241.616,88.876,241.171z"/>
	<path fill="#4C4C49" d="M91.995,249.976c0.137,0.148,0.417,0.337,0.388,0.438c-0.805,2.819,0.386,5.603,0.128,8.407
		c-0.646-0.191-1.088-0.559-1.102-1.287c-0.017-0.831-0.049-1.677-0.731-2.267c-1.073-0.928-0.81-2.017-0.858-3.28
		C89.747,250.038,91.622,250.961,91.995,249.976z"/>
	<path fill="#4C4C49" d="M86.25,241.752c0.109-3.827-0.066-7.671,0.66-11.463c0.341,3.62-0.32,7.305,0.706,10.881
		c-0.066,0.353-0.275,0.561-0.628,0.624C86.742,241.779,86.496,241.766,86.25,241.752z"/>
	<path fill="#4C4C49" d="M91.99,244.941c0.41,0.038,0.886,0.023,0.915,0.594c0.059,1.151,0.057,2.298-0.898,3.168
		C91.508,247.451,90.181,246.203,91.99,244.941z"/>
	<path fill="#4C4C49" d="M89.501,242.426c-0.179,1.091-0.363,2.173-1.883,1.258c-0.298-0.708,0.088-1.144,0.609-1.526
		c0.474-0.14,0.903-0.066,1.277,0.271L89.501,242.426z"/>
	<path fill="#3E403F" d="M88.256,242.435c-0.213,0.416-0.425,0.833-0.638,1.249c-0.708-0.464-0.613-1.196-0.63-1.89
		c0.209-0.208,0.419-0.416,0.628-0.624l0.003,0.003C87.99,241.513,88.268,241.901,88.256,242.435z"/>
	<path fill="#4C4C49" d="M92.006,248.704c-0.003,0.422-0.006,0.844-0.009,1.266C91.394,249.544,91.398,249.122,92.006,248.704z"/>
	<path fill="#4C4C49" d="M92.637,243.051c-0.206,0.212-0.412,0.423-0.619,0.635C92.225,243.474,92.431,243.263,92.637,243.051z"/>
	<path fill="#3E4040" d="M179.839,222.253c-0.02,1.672-0.735,3.396,0.367,4.985c-1.82,1.236-2.457,0.329-2.621-1.44
		c-0.028-0.565,0.107-1.122,0.105-1.672c-0.04-0.2-0.147-0.456-0.327-0.456c-0.183,0-0.261,0.261-0.226,0.503
		c-0.004,0.24-0.043,0.465-0.101,0.686c-0.148,0.346,0.047,0.686,0.027,1.037c-0.067,0.263-0.186,0.493-0.351,0.706
		c-1.283,0.913-0.639,3.56-2.827,3.592c0.564,0.154,1.389-0.116,2.21-0.137c0.29,0.015,0.567,0.085,0.836,0.192
		c0.247,0.151,0.455,0.346,0.627,0.578c0.125,0.26,0.178,0.535,0.151,0.825c-0.132,0.424-0.402,0.732-0.792,0.939
		c-0.285,0.078-0.53,0.008-0.732-0.209c-1.763-0.603-2.893,1.037-4.425,1.251c0.039-3.631-0.118-7.271,0.531-10.873
		c2.114,1.014,0.15,2.568,0.579,3.879c1.01-2.826,0.24-6.385,3.416-8.23c0.396,0.028,0.233,0.445,0.194,0.034
		c-0.02-0.215-0.3-0.166-0.504-0.105c-0.944-0.047-1.614-0.763-1.044-1.38c1.06-1.147,0.515-1.323-0.454-1.998
		c-1.266-0.882-1.527-2.419-1.443-3.947c-0.744-2.891-0.562-5.847-0.623-8.786c2.14,0.44,1.084,2.413,1.722,3.572
		c0.153,0.248,0.298,0.501,0.449,0.751c0.607,0.873,0.667,2.245,2.59,2.384c-2.253-1.048-2.008-2.403-1.316-4.008
		c1.19-2.758,1.128-2.798-1.95-2.949c-0.717-0.035-1.12-0.411-1.417-0.992c0.014-2.302-0.434-4.603-0.001-6.905
		c1.809,0.45,1.169,1.83,1.156,3.017c0.981-0.226,2-0.058,3.078,0.022c0.097-1.478-1.078-3.621,1.117-3.467
		c-1.178-0.308-2.749-0.981-0.395-3.041c0.657-0.575,0.719-1.472,0.551-2.337c-0.04-0.204-0.166-0.439-0.111-0.608
		c0.94-2.855,0.169-5.403-1.359-7.824c0.14-0.266,0.356-0.44,0.644-0.523c1.417,0.649,2.734-0.319,4.116-0.266
		c-0.889,13.783-2.075,27.555-1.341,41.391c0.406,0.641,0.544,1.266-0.109,1.844L179.839,222.253z"/>
	<path fill="#393C3B" d="M176.813,179.617c0.071,1.178,0.732,2.012,1.775,2.355c1.526,0.502,1.107,1.774,1.321,2.81
		c0.019,0.094-0.013,0.281-0.061,0.295c-2.714,0.826-0.802,2.446-0.686,3.787c0.154,1.785-1.166,2.719-2.523,3.708
		c1.48,0.38,2.973,0.57,2.562,2.596c-0.605,0.263-0.5-0.386-0.702-0.602c-0.316-0.34-0.689-0.525-1.095-0.291
		c-0.432,0.249-0.435,0.698-0.156,1.062c0.744,0.972,1.109,1.988,0.531,3.267c-1.531-0.411-3.034-1.772-4.612-0.194
		c-0.436-1.489,0.424-3.056-0.68-4.331c0.206-4.181,0.677-8.353,0.406-12.549c0.395-0.495,1.209,0.607,1.589-0.543
		C174.776,180.1,175.545,179.234,176.813,179.617z"/>
	<path fill="#333637" d="M176.813,179.617c-0.844,0.409-1.495,1.034-1.871,1.883c-0.684,1.546-1.363,0.323-2.047,0.031
		c-0.445-0.339-0.26-0.726-0.047-1.076c0.395-0.651,0.323-1.152-0.391-1.501c-1.045-2.001-1.662-4.056-0.793-6.298
		c1.007-0.646,2.286,0.187,3.268-0.601c0.199-0.02,0.398-0.04,0.597-0.06c0.419,0.167,0.573,0.57,0.809,0.903
		c0.076,0.347-0.01,0.713,0.123,1.026c-0.009-0.023,0.201,0.062,0.201,0.062s-0.048-0.222-0.062-0.244
		c-0.108-0.49-0.308-0.914-0.556-1.32c0.461-1.393,2.027,0.03,2.619-1.03l-0.02,0.015c0.777-0.455,1.633-0.294,2.444-0.233
		c1.323,0.1,1.684,1.454,1.126,2.003c-1.557,1.531-0.991,3.714-2.077,5.365c-0.744,1.131-1.354,1.808-2.697,1.074l-0.313-0.001
		L176.813,179.617z"/>
	<path fill="#393C3B" d="M172.489,200.985c1.076,0.821,1.863,0.04,2.803-0.39c1.254-0.574,2.043-0.081,2.096,1.277
		c0.049,1.243,0.538,2.629-0.996,3.578c-0.409,0.253-0.304,1.336-0.425,1.983c0.756,0.813,1.643,0.133,2.375,0.291
		c0.028,0.319,0.127,0.559,0.047,0.694c-0.353,0.6-0.146,1.58-1.022,1.805c-1.065,0.274-1.868-0.676-2.266-1.236
		c-0.507-0.713-1.038-1.525-1.431-2.364c-0.743-0.583-0.592-1.419-0.622-2.203c-0.029-0.786,0.112-1.62-0.638-2.195
		C172.235,201.8,172.265,201.387,172.489,200.985z"/>
	<path fill="#383B3A" d="M177.438,218.556c-1.023,1.043-2.042,2.089-3.07,3.127c-0.457,0.461-0.324,0.832,0.002,1.344
		c0.634,0.997,1.766,2.052-0.581,2.652c-0.749,0.191-0.653,1.81-0.918,3.12c-1.111-2.139,0.351-4.213-0.579-6.038
		c-0.153-0.589-0.126-1.159,0.177-1.7c1.159-2.246-0.304-4.666,0.46-6.939l-0.094-0.157l0.114-0.143
		c-0.235-0.945-0.422-1.889,0.087-2.811l-0.001,0.002c0.975,1.718,1.18,4.061,3.718,4.467c0.056,0.891-0.907,0.598-1.163,1.187
		c-0.686,1.579,0.507,1.15,1.222,1.263C177.405,217.754,177.647,217.93,177.438,218.556z"/>
	<path fill="#3E4040" d="M172.929,214.121c0.747,0.625,0.12,1.343,0.096,2.001c-0.048,1.317,0.121,2.447,1.87,2.816
		c-0.973,0.85-1.7,1.486-2.427,2.122C172.641,218.748,171.785,216.368,172.929,214.121z"/>
	<path fill="#3E4040" d="M173.036,211.011c-0.029,0.937-0.058,1.873-0.087,2.81C172.138,212.859,172.336,211.927,173.036,211.011z"
		/>
	<path fill="#414342" d="M154.203,246.195c1.122,2.138,0.497,4.41,0.447,6.623c-0.021,0.944-0.985,0.864-1.692,0.932
		c-0.096-0.88-0.643-1.123-1.466-1.291c-2.033-0.415-2.021-0.476-1.513-3.019c0.522-0.06,0.691,0.219,0.774,0.696
		c0.165,0.943,0.844,1.162,1.635,0.894c0.516-0.175,0.832-0.746,0.794-1.248c-0.06-0.787-0.544-1.324-1.424-1.333
		c-0.102-0.001-0.205,0.035-0.308,0.051c-0.725,0.107-1.36-0.116-1.17-0.922c0.166-0.704,0.922-0.788,1.564-0.598
		C152.838,247.272,153.905,247.934,154.203,246.195z"/>
	<path fill="#414342" d="M154.234,238.688c-0.192,1.255,0.358,2.411,0.478,3.621c0.131,1.32,0.211,2.662-0.508,3.884
		c-2.05-0.588-2.508-1.566-1.461-3.333c0.273-0.46,0.722-1.16,0.123-1.195c-2.275-0.134-1.818-2.456-3.04-3.156
		c0.287-1.55,1.818,2.095,1.668-0.683C152.659,237.315,153.3,238.469,154.234,238.688z"/>
	<path fill="#404241" d="M152.486,231.922c0.161,1.164-0.262,1.553-0.955,1.586c-1.015,0.049-1.07-0.723-1.084-1.459
		c-0.012-0.641,0.021-1.165,0.967-1.076C152.337,231.059,152.54,231.552,152.486,231.922z"/>
	<path fill="#414342" d="M149.61,253.646c-0.033-0.227,0.087-0.378,0.303-0.299c0.134,0.049,0.222,0.256,0.297,0.409
		c0.017,0.035-0.147,0.207-0.159,0.2C149.897,253.865,149.755,253.753,149.61,253.646z"/>
	<path fill="#414342" d="M154.774,236.152c-0.009,0.414-0.018,0.827-0.028,1.24C154.186,236.965,154.193,236.552,154.774,236.152z"
		/>
	<path fill="#404241" d="M154.201,232.377c0.206,0.211,0.412,0.423,0.618,0.634C154.612,232.8,154.407,232.589,154.201,232.377z"/>
	<path fill="#4D4E4B" d="M153.087,203.237c-0.081,0.024-0.162,0.047-0.243,0.071c-0.019-0.071-0.074-0.191-0.053-0.206
		C153.006,202.946,153.11,202.998,153.087,203.237z"/>
	<path fill="#4D4E4B" d="M154.814,202.238c-0.08-0.05-0.235-0.115-0.228-0.147c0.042-0.2,0.141-0.156,0.251,0.124
		C154.837,202.214,154.814,202.238,154.814,202.238z"/>
	<path fill="#2A2C2A" d="M432.02,340.591c-2.045,5.311-2.779,11.196-6.57,15.757c-0.148,0.182-0.305,0.364-0.468,0.543
		c-0.063-1.011-0.751-1.913-0.327-3.037c0.239-0.628-0.459-0.776-0.977-0.873c-0.003,0-0.009-0.003-0.013-0.003
		c0-0.003,0-0.003,0-0.006v-0.016c0.038-0.936-0.87-1.696-0.308-2.688c-1.181-0.236-1.137,1.332-2.139,1.093
		c-0.383-0.094-0.688-0.107-0.933,0.43c-1.379,3.037-1.768,3.426-4.391,4.868c-0.097-0.273-0.107-0.512-0.053-0.719
		c0.107-0.449,0.487-0.779,0.864-1.109l0.022-0.016c0.427-0.258,0.273-0.904,0.738-1.14c0.006-0.006,0.013-0.009,0.019-0.009v-0.003
		c0.236-0.411,0.148-0.989,0.653-1.263c3.59-4.259,6.372-8.982,8.144-14.28c1.278-1.602,3.053-0.173,4.522-0.707
		c0.151-0.053,0.556,0.503,0.795,0.813C432.133,338.936,432.321,339.809,432.02,340.591z"/>
	<path fill="#3A3B3B" d="M413.028,354.215c-1.322-0.236-2.352-0.556-1.068-2.161c0.352-0.437,0.336-1.171,0.487-1.768
		c0.198,0.49,0.339,0.986,0.43,1.492c0.094,0.512,0.141,1.03,0.154,1.558C413.041,353.628,413.038,353.92,413.028,354.215z"/>
	<path fill="#2A2C2A" d="M423.681,352.953v0.003c0,0.006-0.003,0.016-0.003,0.022v0.003c-0.097,1.087,0.264,2.33-1.507,3.078
		c0.399-1.31-0.323-2.701,1.495-3.103C423.672,352.956,423.675,352.953,423.681,352.953z"/>
	<path fill="#3C3D3B" d="M401.913,344.938c-0.223,0.722-1.03,0.405-1.608,0.446c-0.016-0.515,0.104-0.961,0.597-1.228
		C401.351,344.291,402.14,344.215,401.913,344.938z"/>
	<path fill="#8D8F8E" d="M405.5,352.306c-0.166,0.088-0.336,0.176-0.502,0.267c-0.05,0.025-0.101,0.053-0.151,0.079
		c-0.21,0.113-0.421,0.226-0.631,0.336c-0.053-0.864,0.286-1.561,0.832-2.23C405.522,351.269,405.535,351.781,405.5,352.306z"/>
	<path fill="#CCCDC8" d="M392.196,344.379c-0.496-0.989-0.556-1.982-0.013-2.974C392.187,342.397,392.19,343.386,392.196,344.379z"
		/>
	<path fill="#CCCDC8" d="M409.617,335.5c-0.298-0.038-0.465-0.207-0.509-0.503c0.148-0.286,0.345-0.644,0.691-0.408
		C410.337,334.954,410.07,335.274,409.617,335.5z"/>
	<path fill="#CCCDC8" d="M392.184,341.304c-0.471-0.807-0.625-1.614-0.006-2.421C392.181,339.69,392.181,340.497,392.184,341.304z"
		/>
	<path fill="#C1C2BE" d="M409.27,367.408c-0.78-0.439-0.698-1.179-0.665-1.902C409.153,366.025,409.232,366.709,409.27,367.408z"/>
	<path fill="#CCCDC8" d="M398.653,348.081c-0.091-0.59,0.003-1.093,0.631-1.35C399.335,347.303,399.159,347.771,398.653,348.081z"/>
	<path fill="#AFB1B0" d="M413.59,356.118c-0.009-0.207-0.019-0.415-0.028-0.622C414.008,355.682,414.027,355.889,413.59,356.118z"/>
	<polygon fill="#D2D3CE" points="388.415,331.062 388.428,331.056 388.421,331.069 	"/>
	<path fill="#D2D3CE" d="M388.428,331.056c0.05-0.091,0.107-0.245,0.141-0.239C388.767,330.849,388.716,330.946,388.428,331.056z"/>
	<path fill="#232424" d="M435.599,318.499c0.209-0.062,0.419-0.125,0.629-0.187c1.707-1.513,3.179-1.03,4.595,0.48
		c1.637,1.746,2.636,3.73,2.628,6.173c-0.008,2.504,0.205,5.024-0.222,7.503c-0.37,2.151,0.202,2.829,2.469,2.342
		c3.443-0.74,6.858-0.622,9.87,1.601c0.481,1.108-1.41,1.987-0.314,3.161c0.088,0.002,0.134,0.168,0.25,0.064
		c-0.348-0.232,0.166-0.001-0.156-0.284c0.062-0.777,0.057-1.56,0.475-2.256c0.78-0.399,1.398-0.058,1.987,0.427
		c0.408,0.468,0.722,0.964,0.451,1.621c-0.398,1.789-0.268,3.417,1.45,4.47c-0.28,0.742-0.906,1.199-1.389,1.284
		c-2.012,0.354-1.224,1.404-0.737,2.427c-0.084,0.119-0.155,0.245-0.223,0.355c-0.01-0.023,0.179-0.012,0.181-0.02
		c0.002-0.008-0.092-0.185-0.092-0.185l0.134-0.15c0.774-0.002,1.257-0.585,2.083-1.384c0.105,1.458,0.312,2.427,0.058,3.53
		c-0.376,1.634-1.12,2.438-2.525,1.722c-1.24-0.632-1.343-0.158-1.657,0.714c-0.355,0.986-1.071,0.728-1.769,0.424
		c-0.146-1.966-0.263-3.93,0.593-5.793c0.208,0.07,0.331,0.211,0.368,0.423c0.378-0.627,0.174-1.103-0.384-1.489
		c-0.403-0.851,0.209-1.688,0.034-2.536c0.268-0.203,0.549-0.17,0.836-0.05c-0.208-0.708-0.977-0.759-1.409-1.204
		c-4.325-2.332-10.499-0.557-12.797,3.712c-0.237,0.44-0.332,0.995-0.36,1.504c-0.245,4.487-0.328,8.987-0.721,13.46
		c-0.354,4.025-0.389,8.091-1.26,12.065c-0.398,0.195-1.024-0.141-1.119-0.036c-1.77,1.975-3.172,0.743-4.591-0.459l0.021,0.002
		c-0.092-0.2-0.088-0.398-0.011-0.556c-0.022,0.037,0.056-0.106,0.056-0.106s-0.119,0.038-0.147,0.052
		c-0.19,0.057-0.31,0.005-0.389-0.144l-0.009-0.022c-0.608-3.37-0.432-6.745-0.074-10.122c0.42-11.31,1.322-22.582,2.655-33.82
		c0.206-1.737,0.334-3.457-0.722-5.009l-0.001-0.001C433.444,319.449,433.444,319.449,435.599,318.499z"/>
	<path fill="#323431" d="M432.962,371.928c0.686-0.104,1.108,0.31,1.618,0.687c0.686,0.508,0.766,0.428,0.745-0.629
		c-0.011-0.535,0.29-0.658,0.72-0.757c1.191-0.276,1.926,0.412,2.628,1.192c-0.308,1.409-1.045,2.214-2.564,1.617
		c-0.758-0.298-1.642,0.104-2.311-0.505C434.035,372.731,433.157,372.507,432.962,371.928z"/>
	<path fill="#323431" d="M432.41,361.031c0.025,3.374,0.049,6.748,0.074,10.122C431.506,367.786,431.586,364.412,432.41,361.031z"/>
	<path fill="#323431" d="M432.493,371.175c0.197,0.001,0.394,0.005,0.591,0.013l0.007,0.009c-0.035,0.244-0.07,0.487-0.106,0.731
		C432.601,371.821,432.469,371.549,432.493,371.175z"/>
	<path fill="#202221" d="M453.812,341.681c1.07-0.695,1.72,1.091,2.814,0.373c0.183,1.071-0.374,1.747-0.684,2.496
		c-1.072-0.251-0.794-1.377-1.558-1.614C453.883,342.659,453.865,342.162,453.812,341.681z"/>
	<path fill="#202221" d="M454.35,345.471c2.496,0.509,0.241,1.653,0.191,2.501c-0.059-0.478-0.117-0.956-0.176-1.435
		C454.361,346.182,454.355,345.826,454.35,345.471z"/>
	<path fill="#2E3030" d="M294.213,317.968c-0.139,0.129-0.16,0.276-0.065,0.44c0.432,1.156,0.254,2.206-0.55,3.146
		c0,0,0.007-0.027,0.007-0.027c-0.993,2.93-0.554,6.06-1.259,9.033c-0.139,0.585-0.019,1.235-0.471,1.735
		c-0.847,3.246-0.645,6.607-1.045,9.904c-0.198,1.629,0.061,3.315-0.428,4.934c-0.019,0.291-0.081,0.572-0.174,0.848
		c-1.619,2.134,0.694,4.806-0.944,6.933c-2.165,2.812-0.403,5.881-0.587,8.822l0.031-0.05c-0.797,1.265-0.641,2.743-0.759,4.111
		c-0.161,1.871-0.909,3.242-2.35,4.364c-0.877,0.682-1.712,1.922-2.881,1.104c-1.34-0.937,1.189-1.471,0.548-2.474
		c0,0.046-0.013,0.132-0.016,0.172c-0.543,1.099-0.931,2.281-2.202,2.746c-0.147-0.144-0.163-0.301-0.049-0.472
		c-0.554-2.224-0.036-4.453-0.028-6.679c-0.067-3.88,0.878-7.651,1.273-11.483c0.832-8.066,1.755-16.12,2.388-24.207
		c0.357-4.562,1.013-9.1,1.535-13.649c0.676-5.892,1.475-11.772,1.325-17.729c-0.049-1.946,0.24-2.093,2.358-1.701
		c2.337,1.168,3.809,3.015,4.376,5.572c0.598,4.171,0.567,8.339-0.062,12.503l0.029-0.02
		C293.817,316.553,293.894,317.261,294.213,317.968z"/>
	<path fill="#292B2A" d="M355.041,241.259c2.397,0.962,4.624,2.089,6.657,3.822c3.519,2.998,4.333,6.748,3.748,10.95
		c-0.707,5.07-3.314,9.128-7.287,12.328c-1.21,0.974-2.402,1.971-3.602,2.957c-1.667,0.494-2.851,2.154-4.792,1.985
		c-0.475,0.215-1.117,0.075-1.417,0.664l0.032-0.015c-1.145,0.112-2.645-1.878-3.394,0.574c-2.501-1.361-4.955,0.529-7.413,0.109
		c-1.323-0.226-1.027-1.406-0.782-2.301c0.597-2.182,1.788-3.989,3.64-5.331c2.976-1.691,6.324-2.571,9.251-4.424
		c2.972-1.881,5.249-4.358,7.252-7.163c1.04-1.458,1.438-2.984,0.424-4.627c-2.304-2.354-5.799-2.607-8.308-2.453
		c-3.317,0.204-6.46-0.91-9.693-0.408c-0.985,0.143-1.825-0.196-2.604-0.754c-0.62-0.537-0.975-1.207-1.013-2.033
		c1.407-2.39,0.284-4.427-0.914-6.453c-0.179-0.433-0.193-0.872-0.05-1.317c0.715-0.769,1.396-1.557,1.509-2.666
		c-0.072-0.2-0.014-0.351,0.174-0.452c0.105-0.288,0.267-0.539,0.484-0.753c0.148-0.002,0.298-0.004,0.448-0.009
		c3.07,2.646,3.07,2.646,1.679,7.474c1.067-1.276,2.184-2.379,3.909-1.362c2.792,0.387,5.566,0.783,8.406,0.425
		C352.724,239.855,354.119,239.975,355.041,241.259z"/>
	<path fill="#393A38" d="M340.745,267.502c-1.707,1.814-3.251,3.718-3.475,6.345c2.176,0.586,3.873,0.229,4.26-2.296
		c0.488,0.156,0.737,0.159,0.847,0.284c0.627,0.712,0.277,2.193,1.742,2.247c1.757,0.065,0.66-1.703,1.44-2.286
		c0.229-0.171,0.384-0.442,0.621-0.725c1.177,0.673,0.784,2.492,2.2,2.881c-1.898,1.489-4.26,1.621-6.444,1.727
		c-3.078,0.149-6.224,0.187-9.262-0.684c0,0,0.005,0.008,0.005,0.008c-1.612-1.025-0.558-3.148-1.843-4.409
		c-0.518-0.508,0.4-1.053,0.946-1.229c1.35-0.435,2.642-1.207,4.156-0.896c0.324,0.261-0.089-0.089,0.241,0.169
		c0.156,0.123,0.304,0.252,0.432,0.403c-0.011-0.186-0.27-0.153-0.299-0.347c0.099-1.292,1.252-1.14,2.024-1.516
		c0.271-0.092,0.549-0.148,0.832-0.186C339.762,266.951,340.323,267.017,340.745,267.502z"/>
	<path fill="#393B38" d="M282.964,369.939c1.223,0.924,0.274,1.952,0.041,3.182c1.666-0.728,2.349-2.444,3.924-2.966
		c0.617-0.204,0.223-0.862,0.253-1.34c0.114-1.821,0.43-3.601,1.546-5.128c0.327,3.248-0.777,6.349-1.005,9.546
		c-0.109,1.526-0.086,3.072-0.456,4.602c-0.272,1.125-0.947,1.585-1.875,1.785c-0.923,0.2-1.876,0.093-2.507-0.757
		c-1.132-1.525-1.997-3.158-1.817-5.152c0.691-1.229,2.016-2.139,1.899-3.774L282.964,369.939z"/>
	<path fill="#3A3C3A" d="M289.876,347.326c-0.359-0.297-0.519-0.696-0.205-1.056c0.416-0.476,0.976-0.958,0.781-1.593
		c-1.164-3.791,1.775-7.551,0.003-11.388c-0.46-0.996,0.762-0.891,1.418-0.994c-0.389,8.693-1.107,17.359-2.262,25.982
		c-0.244,1.822,0.066,3.756-0.917,5.459c-0.097-1.514-0.621-2.841-1.709-3.924c-0.705-0.701-0.833-1.243,0.065-2.037
		c1.364-1.205,1.46-3.172,2.4-4.665c0.22-0.349,0.328-1.024-0.09-1.101c-1.616-0.295-0.325-1.315-0.462-1.563
		c-0.843-1.53,0.69-2.104,0.973-3.124L289.876,347.326z"/>
	<path fill="#393B38" d="M280.991,366.56c0.848,2.222-0.082,4.452,0.028,6.678C280.19,371.016,280.364,368.789,280.991,366.56z"/>
	<path fill="#393A38" d="M348.348,273.965c0.265-0.664,0.801-0.749,1.417-0.664C349.441,273.839,348.911,273.937,348.348,273.965z"
		/>
	<path fill="#232523" d="M495.397,345.443c-0.424,2.377-2.202,3.618-3.791,5.06c-0.28,0.154-0.528,0.342-0.725,0.597
		c-1.329,0.242-0.741-0.807-1.052-1.237c-0.459,0.66,0.116,1.869-0.829,2.513c-3.828,2.933-8.087,5.1-12.5,6.997
		c0.104-0.503,0.21-1.008,0.305-1.514c0.057-0.301,0.214-0.656,0.116-0.905c-0.292-0.751-2.06-0.069-1.602-1.639
		c0.214-0.725,1.388-1.162,0.66-2.167c-0.06-0.079-0.163-0.129-0.245-0.195c-0.163-0.474-0.044-0.851,0.192-1.184
		c0.148,0.063,0.349,0.097,0.603,0.1c3.072-1.087,5.656-3.065,8.448-4.654c1.159-0.663,2.428-1.171,3.351-2.246
		c1.438-1.677,1.2-2.67-0.926-3.382c-2.286-0.766-5.32,0.214-6.891,2.39c-0.801,1.105-1.573,2.192-2.704,2.974
		c-0.075-0.892-0.151-1.784-0.232-2.732c-0.901,0.446-0.204,1.413-0.958,2.051c-0.832-1.033-1.602-2.588-3.357-1.467
		c1.438-2.173,3.577-3.565,5.641-5.041l0.019-0.009c0.7-0.047,1.171-0.371,1.332-1.08c1.442-0.572,2.858-1.225,4.331-1.702
		C490.935,334.903,496.302,340.381,495.397,345.443z"/>
	<path fill="#2C2D2B" d="M468.893,351.727c0.778-0.746,0.883-1.954,1.788-2.613c0.08,1.658,1.022,1.625,2.28,0.925
		c-1.065,2.72-1.681,3.131-4.143,2.911C468.516,352.522,468.507,352.113,468.893,351.727z"/>
	<path fill="#232523" d="M475.742,359.859c-0.754,1.06-1.859,1.317-3.066,1.343c0.261-0.657,0.454-1.322-0.148-2.382
		C473.882,359.354,474.688,360.106,475.742,359.859z"/>
	<path fill="#232523" d="M473.955,356.984c0.437-0.001,0.742,0.235,0.909,0.606c0.129,0.285,0.023,0.632-0.321,0.561
		c-0.348-0.072-0.731-0.296-0.95-0.571C473.408,357.347,473.626,357.064,473.955,356.984z"/>
	<path fill="#2C2D2B" d="M469.777,355.022c0.073-0.166,0.111-0.423,0.231-0.47c0.118-0.047,0.32,0.119,0.485,0.192
		c-0.073,0.166-0.11,0.424-0.229,0.471C470.145,355.261,469.943,355.095,469.777,355.022z"/>
	<path fill="#232523" d="M474.511,352.359c0.2,0.271,0.4,0.541,0.6,0.813c-0.234,0.236-0.546,0.409-0.808,0.172
		C473.878,352.959,474.134,352.625,474.511,352.359z"/>
	<path fill="#41423F" d="M468.271,369.926c-0.51-0.227-0.716-0.656-0.782-1.178C468.122,368.892,468.291,369.346,468.271,369.926z"
		/>
	<path fill="#2C2D2B" d="M470.655,349.161c0.001-0.562,0.249-0.99,0.706-1.305C471.399,348.439,471.277,348.936,470.655,349.161z"/>
	<path fill="#41423F" d="M468.807,370.715c-0.357-0.14-0.527-0.406-0.533-0.784C468.606,370.087,468.793,370.342,468.807,370.715z"
		/>
	<path fill="#232523" d="M476.54,359.319c-0.128,0.354-0.395,0.505-0.756,0.517C476.036,359.663,476.288,359.491,476.54,359.319z"/>
	<path fill="#2E302F" d="M489,352.374c-0.219-1.263,0.664-2.653-0.474-3.826c-0.202-0.208-0.08-0.622,0.193-0.825
		c0.401-0.298,0.723,0.007,1.105,0.153c1.716,0.654-0.102,2.423,1.058,3.224C490.517,351.912,489.931,352.397,489,352.374z"/>
	<path fill="#2E302F" d="M490.879,351.103c0.243-0.2,0.486-0.4,0.729-0.601C491.471,350.831,491.242,351.048,490.879,351.103z"/>
	<path fill="#202221" d="M502.181,369.936c-0.831-0.108-1.809,0.331-2.406-0.646C500.61,369.385,501.554,369.071,502.181,369.936z"
		/>
	<path fill="#202221" d="M499.045,366.787c-0.49-0.274-0.614-0.733-0.632-1.246C498.894,365.818,499.022,366.276,499.045,366.787z"
		/>
	<path fill="#202221" d="M497.156,368.681c0.529,0.305,0.618,0.843,0.727,1.372c0,0,0,0.011,0.001,0.011
		C497.368,369.747,497.178,369.258,497.156,368.681z"/>
	<path fill="#202221" d="M496.578,371.234c-0.085-0.047-0.247-0.106-0.242-0.14c0.03-0.196,0.125-0.145,0.232,0.146
		C496.568,371.24,496.578,371.234,496.578,371.234z"/>
	<polygon fill="#202221" points="497.156,368.681 496.915,368.547 497.022,368.44 	"/>
	<path fill="#393C3B" d="M177.439,179.617c0.838-0.033,1.711-0.004,1.848-1.161c0.06-0.51-0.046-1.215,0.245-1.492
		c1.133-1.075,1.23-2.12,0.31-3.345c-0.178-0.238-0.156-0.605,0.189-0.755c0.162-0.071,0.387-0.014,0.581,0.008
		c0.389,0.044,0.422,1.684,1.098,0.283c0.275-0.569,0.093-1.351-0.609-1.538c-0.783-0.208-1.637-0.151-2.46-0.209
		c1.982-0.775,4.024-1.266,6.162-1.313c2.305,0.417-0.25,1.982,0.813,2.832c1.003-1.1,0.098-4.301,3.188-3.268
		c0.265,0.097,0.498,0.245,0.696,0.447c0.256,1.175,0.383,2.387,0.916,3.495c0.044,0.439-0.046,0.842-0.309,1.201
		c-2.18,3.014-6.113,2.4-8.845,4.274c0,0,0.02-0.025,0.02-0.025C180.068,179.685,179.017,181.448,177.439,179.617z"/>
	<path fill="#444543" d="M189.373,170.194c-0.819,0-1.638,0-2.531,0c0.343,0.774,1.401,1.269,0.419,2.135
		c-0.31,0.273-0.624,0.566-0.844,0.908c-0.393,0.611-0.37,2.006-1.476,1.353c-0.819-0.483-1.128-1.682-0.601-2.777
		c0.26-0.541,1.459-0.836,0.464-1.717c0.359-0.484,0.962-0.347,1.427-0.562c0.916-0.601,1.894-0.266,2.855-0.191
		C189.38,169.559,189.476,169.843,189.373,170.194z"/>
	<path fill="#393C3B" d="M176.184,172.705c-0.218-0.236-0.437-0.473-0.656-0.709c0.972-0.579,2.077-0.463,3.133-0.602
		c-0.017,0.558-0.141,1.029-0.862,0.848c-0.64-0.161-1.204-0.13-1.616,0.465V172.705z"/>
	<path fill="#393C3B" d="M174.931,172.055c-0.932,1.056-2.153,0.54-3.268,0.601C172.589,171.569,173.83,172.192,174.931,172.055z"/>
	<path fill="#D3D6D3" d="M202.057,168.167c0.339,0.001,0.678,0.001,1.016,0.001c0.077,0.097,0.155,0.194,0.232,0.292
		c-0.497,1.018-0.991,1.023-1.48-0.006C201.904,168.358,201.981,168.263,202.057,168.167z"/>
	<path fill="#3E3F3F" d="M88.256,242.435c-0.488-0.282-0.621-0.742-0.637-1.262c0.419-0.001,0.837-0.001,1.256-0.002
		c0.209,0.419,0.419,0.838,0.628,1.258C89.088,242.431,88.672,242.433,88.256,242.435z"/>
	<path fill="#333535" d="M232.092,222.332c3.156-2.502,6.78-2.757,10.502-1.949c1.985,0.431,4.075,0.695,5.839,1.88
		c0.821,0.032,1.403,0.437,1.799,1.139c0.863,1.558,0.543,3.377,1.303,5.064c0.872,1.936-0.634,3.549-2.931,3.934
		c0.024,0.01-0.006,0.278-0.006,0.278s0.257,0.083,0.279,0.093c0.694,0.646,0.604,1.291,0.006,1.902
		c-0.542,0.554-1.121,0.381-1.678,0.015c-0.257,0.024-0.392-0.471-0.508-0.306c-0.118,0.168,0.395,0.134,0.468,0.397
		c0.279,1.638-0.782,1.832-2.025,2.362c-2.257,0.963-4.638,2.014-5.646,4.61c-0.198,0.22-0.435,0.389-0.699,0.519
		c-2.297,0.138-3.962,1.615-5.668,2.866c-1.742,1.277-3.833,1.975-5.421,3.508c-0.598,0.577-1.531,0.727-2.168-0.208
		c-0.062-0.373-0.002-0.707,0.348-0.923c-0.283-0.309,0.185,0.088-0.152-0.161c-0.028-0.021-0.039-0.014-0.034,0.02
		c0.021,0.138,0.048,0.207,0.075,0.213c-0.184,0.169-0.299,0.369-0.349,0.613c0.371,1.364-0.217,2.34-1.242,3.149
		c-0.65,0.742-2.279,0.599-2.178,1.858c0.103,1.289,1.531,1.458,2.519,1.941c1.373,0.672,3.38,0.286,3.932,2.338
		c-0.544,0.522-1.373,0.493-2.236,1.321c1.871-1.097,3.412-1.653,4.76,0.06c0.065,0.536-0.762,1.183-0.419,1.347
		c1.48,0.708,2.624,1.53,1.715,3.31c-0.931,1.823-2.572,1.257-4.082,0.932c-1.772,0.228-3.206-0.718-4.733-1.35
		c-1.055-0.436-2.121-0.844-3.182-1.264c-0.87-1.178-2.282-1.671-3.24-2.85c-4.997-6.158-4.859-12.585-0.604-20.946
		c0.39-0.093,0.964-0.083,0.402-0.713c0.077-0.19,0.154-0.381,0.231-0.571c0.33-0.367,0.232-0.912,0.536-1.289l-0.013,0.023
		c0.272-0.193,0.538-0.39,0.576-0.76l-0.031,0.005c0.719-0.26,1.392,0.106,1.468,0.677c0.231,1.739,1.761,2.4,2.674,3.562
		c0.304,0.522,0.386,1.089,0.337,1.68c-0.028,0.275-0.09,0.546-0.169,0.808c0.08,0.31-0.604,0.732,0.162,0.923
		c5.9-3.541,12.09-6.535,17.821-10.304c1.783-1.172,4.406-2.169,2.775-5.249c-1.632-1.243-3.726-0.885-5.561-1.52
		c-1.509-0.522-2.027,1.937-3.231,2.843c-2.892,2.175-7.545,3.159-9.839-0.686c1.862-1.316,3.725-2.633,5.587-3.949
		C230.81,223.135,231.585,222.95,232.092,222.332z"/>
	<path fill="#343736" d="M228.195,264.457c0.832-0.058,1.701,0.015,2.486-0.208c0.89-0.252,1.244-1.113,1.263-1.976
		c0.018-0.808-0.69-0.892-1.323-1.03c-0.87-0.19-1.745-0.411-2.469-0.958c0.557-1.343,2.115-0.49,2.68-1.519
		c0.202-0.205,0.431-0.244,0.667-0.133c0.219,0.009-0.026,0.509,0.339,0.379c0.393-0.14-0.14,0.176-0.035-0.243
		c-0.415-0.651-1.065-0.191-1.582-0.358c-0.966-0.313-1.054-0.763-0.248-1.391c4.307-0.656,8.627-1.221,12.801-2.512
		c2.304-0.522,4.401-1.657,6.662-2.306c0.25-0.122,0.512-0.223,0.773-0.319c0.766-0.278,1.506-0.617,2.211-1.032
		c0.234-0.149,0.478-0.275,0.726-0.398c1.805-0.758,3.416-1.86,5.086-2.855c1.181-0.675,2.361-1.355,3.602-1.918
		c1.027-0.59,2.051-1.188,3.165-1.606c0.247-0.072,0.502-0.089,0.758-0.068c0.245,0.059,0.475,0.16,0.694,0.282
		c0.342,0.157,0.701,0.274,1.065,0.389c0.25,0.117,0.445,0.29,0.586,0.527c0.847,0.274-1.339,1.189,0.465,1.614
		c1.459,0.343,1.294,1.08-0.707,3.505c-0.184,0.104-0.556,0.156-0.561,0.212c-0.303,3.297-1.82,5.099-5.38,4.465
		c-0.132-0.023-0.345-0.178-0.416,0.03c-0.611,1.786-0.685,1.658-1.781,2.328c-2.382,1.456-5.294,1.986-7.252,4.17
		c-0.797,0.848-1.922,0.679-2.908,0.943c-1.816-0.04-3.45,0.719-5.148,1.189c-5.275,1.459-10.643,1.686-16.063,1.288
		C228.306,264.783,228.254,264.619,228.195,264.457z"/>
	<path fill="#3B3D3D" d="M201.826,168.454c0.492,0.372,0.985,0.37,1.48,0.006c1.581-0.376,3.158-0.776,4.805-0.687
		c1.058,1.309,3.225,1.09,3.948,2.861c0.593,3.976,0.129,4.528-3.97,4.336c-3.621-0.17-7.263,1.633-10.862-0.123
		c-1.853,2.147-4.682-0.135-6.718,1.471c-0.401,0.316-1.527,0.704-1.913-0.179c-0.558-1.275,0.919-1.032,1.406-1.549
		c0-0.419,0-0.837,0-1.255c0.158-1.121,0.346-2.247-0.63-3.141c0,0,0,0,0,0c-0.009-0.221-0.018-0.442-0.027-0.663
		c0,0-0.007,0.007-0.007,0.007c1.617-0.783,3.446,0.167,5.063-0.618C196.872,168.683,199.379,169.042,201.826,168.454z"/>
	<path fill="#444543" d="M190.002,174.59c-0.324,0.378-0.648,0.757-1.177,1.375c1.182,0.113,1.955-0.458,2.696-0.8
		c1.021-0.471,1.783-1.079,2.997-0.155c0.721,0.548,2.055,0.639,1.644-1.179c-0.077-0.343,0.309-0.807,0.763-0.861
		c0.446-0.053,0.797,0.256,0.985,0.639c0.362,0.735,0.535,1.636,1.642,1.587c1.441-0.065,3.297,0.629,4.219-0.297
		c1.06-1.064,1.893-0.914,3.003-0.745c0.4,0.061,0.82-0.032,1.229-0.01c3.697,0.2,3.834,0.084,4.057-3.51
		c0.771,0.504,0.348,1.624,1.103,2.136c0,0-0.011-0.036-0.011-0.036c0.601,0.82,0.728,1.627-0.066,2.409
		c0,0,0.006-0.034,0.006-0.034c-3.237,1.027-6.6,0.706-9.91,0.873c-6.367,0.322-12.758,0.339-18.827,2.759
		c-0.928,0.37-2.056,0.237-3.092,0.337c0.037-0.415,0.038-1.028,0.451-1.076c1.745-0.206,2.924-2.37,5.031-1.39
		c0.41,0.191,0.95-0.189,1.055-0.858C188.008,174.43,189.093,174.649,190.002,174.59z"/>
	<path fill="#363939" d="M177.438,231.747c-0.001-0.208-0.001-0.416,0-0.624c-0.22-0.199-0.407-0.43-0.627-0.63
		c-1.127-1.466-1.586-2.932-0.002-4.399c0-0.208,0-0.417,0-0.625c-0.145-0.14-0.194-0.28-0.145-0.42
		c0.048-0.14,0.097-0.21,0.146-0.21l0-0.001c0.153-0.218,0.361-0.286,0.617-0.224c0.362,0.173,0.439,0.56,0.641,0.854
		c0.106,1.322,0.548,2.239,2.137,1.771c0,0,0.107,0.015,0.107,0.015c0.385-0.073,0.758-0.216,1.153-0.206
		c0.249,0.017,0.471,0.107,0.66,0.275c0.167,0.164,0.323,0.341,0.47,0.511c0.184,0.168,0.356,0.156,0.498-0.074
		c-0.215-0.733-0.034-1.296,0.624-1.673l-0.005,0.002c0.913-0.78,2.255,0.263,3.118-0.732l-0.059,0.037
		c0.425-0.242,0.988-0.166,1.338-0.581l-0.017,0.009c0.646-0.391,1.282-0.437,1.905,0.049c0.002,0.2,0.004,0.399,0.006,0.599
		c-0.912,0.725-0.46,1.631-0.414,2.534c0.089,1.738-0.31,2.065-2.168,2.162c-0.282,0.015-0.793,0.042-0.81,0.133
		c-0.542,3.037-2.174,1.313-3.518,0.825c-0.226-0.036-0.335-0.169-0.331-0.393c-0.526-0.026,0.042,0.493-0.289,0.573
		c-0.435,0.584-1.059,0.799-1.719,0.945c-0.348,0.016-0.68-0.14-1.018-0.113c0.013-0.001-0.261,0.011-0.261,0.011
		s0.257,0.098,0.273,0.095c0.235-0.044,0.449-0.028,0.667,0.044c0.683,0.18,1.404-0.66,2.052,0.093
		c-0.034,0.804-0.455,1.22-1.256,1.257c-0.204,0.213-0.438,0.396-0.63,0.622c-1.256,0.194-2.514-0.959-3.769,0.007
		c-0.209-0.627-0.418-1.254-0.627-1.881c0.208-0.003,0.416-0.005,0.624-0.006C177.01,232.157,177.238,231.966,177.438,231.747z"/>
	<path fill="#3F4140" d="M177.449,242.422c1.711,1.874,1.709,2.478-0.01,3.774C177.04,244.937,177.039,243.679,177.449,242.422z"/>
	<path fill="#3F4140" d="M176.813,249.338c0.209,0.837,0.418,1.673,0.627,2.509c-0.8-0.022-1.543,0.01-1.902-1.014
		C175.058,249.46,175.736,249.278,176.813,249.338z"/>
	<path fill="#3F4140" d="M177.441,247.451c1.725,0.333,1.153,1.543,1.152,2.57c-0.889,0.219-1.192-0.557-1.78-0.683
		C177.023,248.709,177.232,248.08,177.441,247.451z"/>
	<path fill="#3F4140" d="M177.44,246.196c0.001,0.418,0.001,0.837,0.002,1.255C176.825,247.034,176.824,246.615,177.44,246.196z"/>
	<path fill="#3F4140" d="M177.441,240.544c-0.003,0.21-0.006,0.42-0.009,0.631c-0.076-0.151-0.167-0.296-0.214-0.455
		C177.209,240.685,177.363,240.603,177.441,240.544z"/>
	<path fill="#3F4140" d="M177.44,251.849c0.208,0.21,0.416,0.42,0.625,0.63C177.857,252.269,177.649,252.059,177.44,251.849z"/>
	<path fill="#3F4140" d="M178.073,253.102c0.076,0.15,0.168,0.295,0.215,0.454c0.01,0.033-0.144,0.114-0.223,0.174
		C178.067,253.521,178.07,253.312,178.073,253.102z"/>
	<path fill="#3F4140" d="M189.996,224.871c-0.635-0.016-1.27-0.033-1.905-0.049c2.647-0.96,5.381-1.359,8.19-1.281
		c0.001,0.224,0.002,0.448,0.003,0.672c-0.611,0-1.222,0-1.833,0c-0.094,0.757,1.483,1.085,0.551,1.654
		c-0.681,0.416-2.612,0.181-2.62,0.098C192.196,224.126,190.503,225.749,189.996,224.871z"/>
	<path fill="#3F4140" d="M198.794,224.743c-0.352,0.189-0.686,0.439-1.061,0.553c-0.694,0.211-1.38-0.001-1.351-0.776
		c0.027-0.726,0.756-0.186,1.154-0.281c0.378-0.09,0.805,0.027,1.211,0.054C198.763,224.443,198.779,224.593,198.794,224.743z"/>
	<path fill="#3F4140" d="M196.693,223.503c0.407-0.408,0.895-0.585,1.469-0.512C197.799,223.525,197.269,223.579,196.693,223.503z"
		/>
	<path fill="#3F4140" d="M195.654,229.866c-0.151-0.213-0.302-0.426-0.453-0.639c0.721-0.196,0.293,0.432,0.456,0.636
		L195.654,229.866z"/>
	<path fill="#383B3A" d="M180.574,231.753c0.9-0.016,1.532-0.434,1.892-1.261c0.208-0.226,0.417-0.226,0.625,0
		c0,0.21,0.001,0.421,0.002,0.631c-0.209,0.418-0.418,0.837-0.627,1.255c-0.838-0.191-1.675,1.079-2.514,0.002
		C179.979,231.991,180.395,231.989,180.574,231.753z"/>
	<path fill="#383B3A" d="M180.581,234.257c0.21-0.207,0.42-0.415,0.63-0.622C181,233.842,180.79,234.049,180.581,234.257z"/>
	<path fill="#393B3B" d="M224.575,227.475c0.21,0.366,0.504,0.834,0.897,0.752c1.354-0.282,2.384-0.243,3.008,1.329
		c0.082,0.206,1.454-1.723,2.747-1.044c1.664,0.874,2.507,0.601,2.332-1.424c-0.033-0.386,0.116-0.646,0.489-0.544
		c1.071,0.294,1.374,0.036,1.41-1.162c0.035-1.138,1.766-2.013,2.519-1.184c1.389,1.529,2.925,1.013,4.475,1.127
		c0.602,0.044,1.245,0.196,1.534,0.875c-5.252,1.504-10.073,3.818-14.339,7.299c-1.718,1.402-3.132,3.059-4.638,4.642
		c-0.4,0.368-0.815,0.724-1.215,1.094c-0.2,0.177-0.427,0.31-0.678,0.403c-0.41,0.073-0.772-0.006-1.05-0.342
		c-0.685-0.406-1.328-0.936-2.066-1.187c-1.033-0.351-1.604-0.573-0.797-1.82c0.461-0.713-0.506-1.149-1.063-1.546
		c0.972-2.202,2.552-3.938,4.314-5.515c0.613-0.549,1.314-0.99,1.596-1.818C224.226,227.416,224.401,227.438,224.575,227.475z"/>
	<path fill="#393B3B" d="M216.839,237.334c0.899,0.474,1.812,0.937,1.807,2.186c-1.482,0.389-1.434-1.103-2.208-1.474
		C216.368,237.695,216.488,237.45,216.839,237.334z"/>
	<path fill="#393B3B" d="M217.606,235.473c0.034,0.518-0.066,0.981-0.536,1.289C217.015,236.236,217.139,235.783,217.606,235.473z"
		/>
	<path fill="#393B3B" d="M218.169,234.736c-0.04,0.368-0.238,0.617-0.576,0.76C217.603,235.104,217.785,234.844,218.169,234.736z"/>
	<polygon fill="#E9EAE4" points="212.615,244.94 212.747,244.7 212.853,244.805 	"/>
	<polygon fill="#E6E7E1" points="218.896,261.899 218.655,261.766 218.761,261.659 	"/>
	<path fill="#8A8F91" d="M232.092,222.332c-0.044,1.367-1.03,1.211-1.93,1.194C230.576,222.757,231.232,222.38,232.092,222.332z"/>
	<path fill="#3F4140" d="M183.716,226.086c-0.073,0.433-0.542,0.897,0.198,1.24c1.319,0.611,0.365,0.928-0.193,1.284
		c-0.629,0.435-1.256,0.43-1.883-0.005c-0.001-0.208-0.002-0.416-0.001-0.624c0.353-0.321,0.236-0.658,0.035-0.998
		c-0.039-0.12-0.078-0.24-0.116-0.36C182.297,226.034,183.017,226.099,183.716,226.086z"/>
	<path fill="#3F4140" d="M186.829,225.357c-0.813,1.207-2.048,0.616-3.118,0.732C184.64,225.375,185.747,225.418,186.829,225.357z"
		/>
	<path fill="#3F4140" d="M188.108,224.813c-0.289,0.554-0.779,0.648-1.338,0.581C187.054,224.828,187.571,224.796,188.108,224.813z"
		/>
	<path fill="#3F4140" d="M181.837,227.352c-0.508-0.033-1.016-0.066-1.524-0.099c0.373-0.457,0.87-0.632,1.444-0.63l0.159,0.23
		c0.141,0.136,0.177,0.255,0.106,0.358C181.958,227.305,181.896,227.352,181.837,227.352z"/>
	<path fill="#383B3A" d="M176.81,226.094c-1.023,1.467,0.361,2.932,0.002,4.399c-1.326,1.126-2.934-0.743-4.377,0.515
		c1.693-1.183,2.873-2.465,2.997-4.535C175.463,225.963,176.313,226.14,176.81,226.094z"/>
	<path fill="#383B3A" d="M177.44,224.84c-0.21,0-0.42-0.001-0.63-0.001c-0.219-0.346-0.468-0.677-0.65-1.042
		c-0.493-0.989,0.483-1.308,0.958-1.625c0.779-0.52,0.999,0.376,1.263,0.863c0.189,0.347,0.214,0.782,0.313,1.178
		C178.321,224.51,177.899,224.712,177.44,224.84z"/>
	<path fill="#393C3B" d="M177.438,218.556c-0.209-0.209-0.418-0.417-0.627-0.625c0.26-0.383,0.468-1.135,1.043-0.633
		C178.284,217.672,177.914,218.237,177.438,218.556z"/>
	<path fill="#393C3B" d="M178.528,220.185c-0.22,0.15-0.453,0.31-0.687,0.469c-0.065-0.17-0.234-0.415-0.176-0.496
		c0.162-0.223,0.418-0.376,0.637-0.557C178.368,219.772,178.434,219.942,178.528,220.185z"/>
	<path fill="#393C3B" d="M175.366,199.098c-0.112,0.133-0.203,0.343-0.34,0.38c-0.221,0.06-0.337-0.107-0.266-0.327
		c0.027-0.084,0.101-0.166,0.176-0.218C175.157,198.778,175.306,198.84,175.366,199.098z"/>
	<path fill="#393C3B" d="M177.44,224.84c0.281-0.484,0.74-0.611,1.255-0.628c-0.209,0.419-0.418,0.837-0.627,1.256
		C177.859,225.259,177.649,225.049,177.44,224.84z"/>
	<path fill="#383B3A" d="M177.438,231.747c-0.21,0.21-0.419,0.419-0.629,0.629C177.019,232.166,177.229,231.957,177.438,231.747z"/>
	<path fill="#383B3A" d="M176.812,230.493c0.209,0.21,0.418,0.42,0.627,0.63C177.23,230.913,177.021,230.703,176.812,230.493z"/>
	<path fill="#383B3A" d="M176.81,224.84c0,0.21,0,0.42,0,0.63c-0.078-0.149-0.171-0.294-0.22-0.452
		C176.579,224.984,176.733,224.9,176.81,224.84z"/>
	<path fill="#393C3B" d="M177.44,174.589c-1.836,0.3-1.972,0.096-1.256-1.884c0,0,0,0.002,0,0.002
		c1.423-0.042,0.694,1.351,1.256,1.884V174.589z"/>
	<path fill="#393C3B" d="M177.19,176.634c-0.071-0.025-0.141-0.05-0.212-0.075c0.029-0.08,0.042-0.175,0.095-0.232
		c0.02-0.022,0.133,0.042,0.204,0.067C177.248,176.473,177.219,176.553,177.19,176.634z"/>
	<path fill="#393C3B" d="M177.44,174.59c0.08,0.045,0.234,0.105,0.229,0.132c-0.04,0.191-0.13,0.143-0.229-0.133V174.59z"/>
	<path fill="#3E4040" d="M174.676,205.002c-0.167,0.032-0.333,0.063-0.5,0.095c0.032-0.161,0.042-0.332,0.107-0.48
		c0.025-0.058,0.187-0.108,0.26-0.084C174.774,204.612,174.813,204.785,174.676,205.002z"/>
	<polygon fill="#3E4040" points="173.671,206.624 173.805,206.383 173.912,206.49 	"/>
	<path fill="#343635" d="M218.833,355.448c-0.045-0.514,0.118-0.943,0.519-1.275c1.156-0.788,2.045-2.426,3.842-1.244
		c-0.314-0.557-1.504-0.713-1.112-1.571c0.479-1.051,1.413-0.566,2.147-0.209c0.664,0.323,1.314,0.874,1.799-0.145
		c0.946-1.988,2.723-1.959,4.534-2.025c2.64-0.097,4.444-2.722,3.664-5.21c-0.547-1.745-2.792-0.7-3.516-2.148
		c3.338-0.811,6.665-1.675,10.11-1.923c0.074,0.105,0.172,0.178,0.295,0.209c0-0.01-0.132,0.109-0.137,0.107
		c0.027-0.155-0.032-0.251-0.183-0.289c0.505-0.714,1.264-0.552,1.971-0.572c0.082,0.121,0.192,0.206,0.328,0.259
		c0,0.002,0.198,0.079,0.199,0.078c-0.076-0.158-0.042-0.285,0.104-0.381c2.625-1.012,5.369-1.261,8.15-1.267
		c1.019,0.745,1.769,1.727,0.842,2.864c-0.879,1.078-1.615-0.162-2.373-0.534c-0.49-0.241-1.084-0.427-1.429-0.002
		c-0.527,0.651,0.263,1.091,0.5,1.62c0.064,0.133,0.122,0.267,0.183,0.401c0.049,0.298,0.007,0.583-0.133,0.852
		c-0.349,0.297-0.766,0.431-1.205,0.517c-1.27,0.229-2.697,0.968-3.236-1.095c-1.207,1.006-0.972,4.086-4.023,2.07
		c0.548,0.45,0.75,0.676,0.995,0.844c0.364,0.249,0.759,0.252,1.168,0.097c1.841-0.696,3.184,0.036,4.271,1.498
		c0.046,0.14,0.089,0.281,0.133,0.421c-0.759,0.471-1.622,0.552-2.478,0.659l-0.001-0.003c-0.775,0.611-1.682,0.609-2.599,0.559
		l0.016-0.005c-0.966,0.604-2.022,0.771-3.138,0.653l0.016-0.003c-3.12,0.856-6.281,1.385-9.53,1.154
		c-1.211-0.086-1.832,0.278-2.091,1.622c-1.088,5.656-1.317,11.355-1.162,17.089c0.029,1.084,0.481,1.462,1.551,1.354
		c2.271-0.23,4.55-0.368,6.823-0.58c4.943-0.46,9.901-0.821,14.82-1.474c2.11-0.28,4.023-1.462,6.29-1.496
		c2.757-0.041,5.374,0.512,8.017,1.095c1.213,0.267,1.827,1.322,2.753,1.963c0.457,0.273,1.1,0.438,0.7,1.207
		c-0.147,0.154-0.159,0.319-0.037,0.493c-0.561,1.462-2.293,0.99-3.174,1.923l-0.005-0.002c-0.806,0.276-1.731,0.134-2.455,0.699
		l0.019-0.006c-0.911-0.048-1.809-0.041-2.578,0.563l-0.007,0.006c-2.321,0.221-4.623,0.542-6.833,1.331l0.01-0.005
		c-4.864,0.611-9.728,1.222-14.592,1.833c-4.021,0.401-8.065,0.504-11.99,1.731c-3.518,1.1-6.529-0.821-7.636-4.476
		c-0.293-0.965,0.114-2.137-0.843-2.903c-0.128-1.986,0.076-3.925,0.531-5.875c0.521-2.231,0.678-4.522,0.638-6.824
		c-0.025-1.442-0.181-2.922,0.574-4.267c1.204,0.963,0.834,2.508,1.324,3.744c0.487,1.229,0.851,2.286,2.62,2.216
		C220.007,360.289,220.582,357.164,218.833,355.448z"/>
	<path fill="#E1E2DC" d="M217.885,378.247c-0.024-0.081-0.048-0.162-0.072-0.244c0.072-0.019,0.193-0.074,0.209-0.052
		C218.179,378.166,218.126,378.27,217.885,378.247z"/>
	<path fill="#3B3C3A" d="M247.793,342.931c0.418-0.001,0.836-0.002,1.253-0.003c0.314-0.01,0.367-0.134,0.188-0.392
		c-0.103-0.148-0.149-0.238-0.185-0.238l0.002,0.001c1.067-1.694,1.074-1.702,2.613-0.207c1.063,1.034,2.035,2.728,3.699,0.13
		c-1.125,0.693-2.199,1.311-2.664-0.019c-0.455-1.302-0.139-2.795,1.09-3.575c1.042-0.662,2.496-0.963,3.242,0.49
		c0.566,1.104,1.392,1.789,2.393,2.335c0.453,0.247,1.025,0.206,1.487-0.093c0.162-0.105,0.142-0.381,0.086-0.59
		c-0.157-0.588-0.489-0.879-1.124-0.665c-1.461,0.493-2.229-0.255-3.051-1.395c-1.041-1.444-3.05,0.516-4.234-0.93
		c4.824-1.101,9.464-0.909,13.896,1.629c1.475,0.845,1.708,1.874,1.311,3.307c-4.899,1.293-9.804,2.55-14.804,3.418
		c-1.932,0.335-3.836,0.835-5.752,1.261c0,0-0.195-0.166-0.195-0.166C246.515,345.659,247.312,344.322,247.793,342.931z"/>
	<polygon fill="#DFE0DC" points="269.775,342.928 270.015,343.062 269.909,343.168 	"/>
	<path fill="#DEDFDB" d="M252.155,376.195c0.083,0.046,0.241,0.104,0.236,0.136c-0.031,0.193-0.122,0.143-0.225-0.14
		C252.165,376.19,252.155,376.195,252.155,376.195z"/>
	<path fill="#DEDFDB" d="M258.995,374.858c0.088,0.09,0.176,0.181,0.264,0.271c-0.09-0.088-0.18-0.177-0.271-0.265
		C258.988,374.864,258.995,374.858,258.995,374.858z"/>
	<path fill="#202221" d="M455.7,339.787c-0.479,0.186-0.945,0.448-1.441,0.538c-0.533,0.098-1.126-0.103-1.272-0.646
		c-0.182-0.676,0.336-0.812,0.923-0.838c0.625-0.028,0.748-0.269,0.609-0.986c-0.203-1.044,0.813-0.362,1.219-0.603
		c0,0-0.024-0.011-0.024-0.011C456.308,338.094,455.715,338.939,455.7,339.787z"/>
	<path fill="#323431" d="M433.083,371.189c0.013-0.297,0.011-0.596,0.043-0.89c0.056-0.516,0.353-0.674,0.821-0.479
		c0.175,0.073,0.391,0.17,0.475,0.319c0.279,0.495-0.113,0.715-0.469,0.872c-0.264,0.116-0.574,0.129-0.864,0.187
		C433.09,371.198,433.083,371.189,433.083,371.189z"/>
	<path fill="#202221" d="M458.212,348.581c-0.365,0.081-0.802,0.474-1.08,0.019c-0.311-0.511-0.022-0.962,0.452-1.275
		C457.794,347.743,458.003,348.162,458.212,348.581z"/>
	<path fill="#202221" d="M450.25,339.484c-0.219,0.285-0.514,0.292-0.814,0.196c-0.241-0.078-0.317-0.277-0.182-0.491
		c0.179-0.285,0.456-0.43,0.755-0.212C450.143,339.074,450.174,339.312,450.25,339.484z"/>
	<path fill="#202221" d="M456.782,340.346c-0.401,0.263-0.521,0.341-0.64,0.419c-0.137-0.231-0.298-0.452-0.406-0.696
		c-0.14-0.315-0.057-0.361,0.228-0.167C456.198,340.063,456.463,340.176,456.782,340.346z"/>
	<path fill="#202221" d="M452.157,337.125c0.076,0.048,0.223,0.117,0.216,0.14c-0.052,0.168-0.103,0.353-0.213,0.484
		c-0.219,0.26-0.313,0.202-0.209-0.123C452.007,337.454,452.087,337.292,452.157,337.125z"/>
	<path fill="#202221" d="M458.621,348.93c0.12,0.238,0.059,0.39-0.184,0.417c-0.044,0.005-0.134-0.133-0.153-0.216
		c-0.041-0.18-0.049-0.367-0.071-0.551C458.352,348.7,458.491,348.819,458.621,348.93z"/>
	<polygon fill="#202221" points="451.931,337.903 451.797,338.143 451.691,338.037 	"/>
	<path fill="#313333" d="M230.71,341.621c1.634-0.047,3.184,0.707,4.904,0.296c-0.017,1.213-0.855,1.992-0.508,3.161
		c0.359,1.208-0.461,2.354-1.05,3.466c-0.491,0.928-1.036,1.451-2.147,1.307c-0.717-0.093-1.464,0.05-2.184-0.032
		c-1.538-0.175-2.603,0.258-3.089,1.869c-0.163,0.54-0.691,0.969-1.076,1.479c-0.903-0.858-1.605-1.799-3.116-1.838
		c0.178,0.895,1.01,0.994,1.452,1.427c0.316,0.31,0.586,0.733,0.286,1.077c-0.32,0.367-0.811,0.648-1.282,0.797
		c-0.345,0.11-0.469-0.233-0.321-0.567c0.641-1.448-0.279-1.138-0.972-0.789c-0.732,0.369-1.328,1.028-2.256,0.898
		c-0.201-3.974,1.069-7.836,0.899-11.808c-0.017-0.407,0.001-0.816,0.003-1.224c0,0-0.025-0.012-0.025-0.012
		c0.558-0.788-0.131-1.856,0.586-2.607c1.045-6.901,2.146-13.794,3.103-20.707c0.295-2.131-0.302-4.316,0.442-6.481
		c0.336-0.978,0.871-1.667,1.661-1.439c3.011,0.868,5.683-0.768,8.534-0.925c5.994-0.331,11.928-1.487,17.961-1.276
		c0.937,0.033,2.001,0.25,2.791-0.101c2.24-0.995,3.526,0.439,4.793,1.71c1.426,1.43,0.891,3.332,0.713,5.065
		c-0.07,0.685-0.531,1.191-1.297,1.583c-1.187,0.607-2.396,0.779-3.629,0.716c-7.349-0.374-14.525,0.889-21.721,2.091
		c-1.773,0.296-2.366,1.051-2.646,2.783c-0.512,3.168-0.703,6.421-1.917,9.452c-1.978,1.949,0.397,4.32-0.617,6.362
		c-0.058,0.804-0.054,1.618-0.188,2.408C228.532,341.353,229.385,341.709,230.71,341.621z"/>
	<path fill="#2E302F" d="M328.26,238.827c0.11,0.168,0.093,0.322-0.051,0.461c-0.556,0.732-2.017-0.205-2.225,1.221
		c0.641,0.11,1.778-1.741,1.87,0.42c0.117,2.759,1.005,5.518,0.043,8.277c-1.387,1.428-1.255,3.982-3.486,4.768
		c-0.738,0.524,0.394,0.385,0.288,0.705c0.325,1.408,0.025,2.359-1.654,2.313l0.036,0.033c-0.104-0.331-0.352-0.545-0.613-0.748
		l0.034,0.037c-0.162-0.236-0.333-0.466-0.511-0.69c-0.97-2.599-1.581-5.01-0.667-7.998c1.007-3.295,0.828-6.952,1.17-10.451
		c0.101-1.03,0.498-2.13,0.259-3.071c-0.35-1.375,0.501-2.051,1.096-2.935l-0.004,0.013c0.402-0.169,0.847-0.994,1.191-0.364
		c0.491,0.898,1.859,0.921,1.923,2.125c0.599,1.202,0.024,2.836,1.385,3.756l-0.044-0.043
		C328.534,237.386,328.655,238.111,328.26,238.827z"/>
	<path fill="#313333" d="M252.587,337.779c1.937,0.406,4.08-0.437,5.749,1.65c0.896,1.12,1.761-0.857,2.573-1.252
		c0.894,0.501,0.75,1.224,0.704,1.779c-0.072,0.859,1.865,1.489,0.435,2.291c-1.019,0.571-2.346,0.599-3.514-0.134
		c-0.93-0.584-1.592-1.336-1.899-2.389c-0.191-0.656-0.525-1.12-1.285-1.135c-0.815-0.017-1.41,0.314-1.749,1.062
		c-0.086,0.189-0.145,0.394-0.183,0.599c-0.137,0.745-1.032,1.796,0.148,2.134c1.138,0.326,1.006-0.947,1.2-1.693
		c0.039-0.149,0.261-0.251,0.398-0.373c1.122,1.254,1.169,2.379,0.12,3.564c-0.944,1.068-1.869,1.01-3.004,0.173
		c-0.806-0.594-1.18-1.364-1.672-2.16c-0.659-1.065-1.165-0.266-1.557,0.403c-1.281-0.479-2.167-1.251-2.038-2.77
		c2.948-0.92,2.948-0.92,4.743,1.107c0.85-1.05,0.12-1.915-0.211-2.796C251.881,337.622,252.23,337.634,252.587,337.779z"/>
	<path fill="#3B3C39" d="M328.821,221.07c-1.022-0.66-2.044-1.32-3.067-1.98l0.012,0.011c-0.056-0.674-0.058-1.37-0.709-1.812
		l0.003,0.005c0.277-1.294-0.598-2.382-0.646-3.615c-0.061-1.565,0.698-2.207,2.052-1.751c3.092,1.042,4.987,3.641,4.932,6.765
		c-0.035,1.998-0.227,2.175-2.578,2.376L328.821,221.07z"/>
	<path fill="#4A4B49" d="M228.989,337.354c-0.07-0.613,0.088-1.434-0.249-1.805c-1.798-1.975-0.81-3.306,0.866-4.557
		C229.571,333.129,229.882,335.299,228.989,337.354z"/>
	<path fill="#383A38" d="M328.344,236.701c-1.297-0.241-1.871-0.908-1.456-2.28c0.138-0.457,0.053-0.982,0.071-1.476
		c0.923,0.329,0.273,1.627,1.202,1.953C328.282,235.493,328.549,236.073,328.344,236.701z"/>
	<path fill="#2E3130" d="M335.091,237.403c0.068-0.396,0.136-0.792,0.205-1.188c0.678-0.277,0.473-1.131,0.989-1.514
		C336.453,235.852,336.294,236.858,335.091,237.403z"/>
	<path fill="#DBDCD7" d="M294.213,317.968c-0.405-0.708-0.423-1.415,0.001-2.122C294.213,316.553,294.213,317.261,294.213,317.968z"
		/>
	<path fill="#2E3130" d="M336.391,233.714c0.186-0.049,0.372-0.1,0.557-0.152c-0.163,0.229-0.325,0.458-0.488,0.687
		C336.422,234.073,336.399,233.894,336.391,233.714z"/>
	<path fill="#383937" d="M322.468,256.277c0.356,0.125,0.564,0.37,0.614,0.747c-0.189-0.018-0.377-0.049-0.562-0.092
		C322.502,256.714,322.485,256.496,322.468,256.277z"/>
	<path fill="#383937" d="M321.991,255.624c0.17,0.23,0.341,0.46,0.511,0.69C322.146,256.221,321.958,256.005,321.991,255.624z"/>
	<path fill="#313333" d="M243.393,339.787c-0.21-0.212-0.42-0.423-0.629-0.635c0.21-0.015,0.421-0.03,0.631-0.045
		C243.394,339.334,243.394,339.56,243.393,339.787z"/>
	<path fill="#E2E3DE" d="M325.689,219.805c0.078,0.049,0.23,0.114,0.224,0.145c-0.042,0.193-0.139,0.146-0.243-0.129
		L325.689,219.805z"/>
	<path fill="#E2E3DE" d="M323.849,231.17c-0.086-0.048-0.251-0.111-0.245-0.142c0.036-0.192,0.133-0.137,0.241,0.155
		C323.845,231.184,323.849,231.17,323.849,231.17z"/>
	<path fill="#DCDDD8" d="M343.265,225.468c-0.209,0.209-0.419,0.419-0.628,0.628C342.846,225.887,343.056,225.677,343.265,225.468z"
		/>
	<path fill="#393B38" d="M282.967,369.937c-0.173-0.242-0.437-0.464-0.498-0.731c-0.093-0.41,0.006-0.949,0.554-0.832
		c0.533,0.114,0.34,0.621,0.19,1.001c-0.075,0.191-0.165,0.376-0.249,0.564L282.967,369.937z"/>
	<path fill="#3A3C3A" d="M287.111,363.29c-0.167,0.032-0.333,0.063-0.5,0.094c0.032-0.161,0.042-0.332,0.107-0.479
		c0.025-0.058,0.187-0.108,0.26-0.083C287.209,362.9,287.247,363.073,287.111,363.29z"/>
	<path fill="#2E3130" d="M356.44,231.821c-4.033,0.405-7.656,1.811-10.725,4.493c-0.64,0.559-1.426,0.873-2.049,1.361
		c-0.848,0.664-1.789,1.495-1.579,2.844c-0.623-0.339-1.234-1.327-1.751,0.206c-0.285,0.844,0.164,1.893-0.88,2.705
		c-0.861-0.772-0.655-2.073-1.407-2.897c-0.913-1.001,1.087-0.9,0.871-1.873c-0.228-1.028,2.633-2.854-0.904-3.059
		c-0.706-0.041-0.193-1.598-1.084-2.023c1.467-2.928,4.458-3.948,6.97-5.569c1.037,1.176,0.22,3.083,1.599,4.091
		c0.181,0.065,0.247,0.198,0.176,0.376c0.219-0.296-0.215-0.37-0.206-0.616c1.011-2.531,2.43,0.182,3.665-0.38
		c0.232-0.591,0.191-1.308,0.027-1.969c-0.233-0.935-0.638-1.922,0.662-2.28c1.149-0.317,2.705-0.167,2.964,0.961
		c0.365,1.593,1.044,1.893,2.47,1.915C356.053,230.121,356.835,230.705,356.44,231.821z"/>
	<path fill="#353634" d="M358.276,250.163c-2.71-0.182-5.339-1.156-8.101-0.834c-0.912-0.677-1.962-0.429-2.982-0.494
		c-2.645-0.169-5.332-0.15-7.81-1.321c0.631-0.266,0.23-0.988,0.582-1.344c0.367-0.371,0.848-0.824,1.01,0.184
		c0.032,0.201,0.076,0.399,0.114,0.599c1.67-1.086,2.34,1.148,3.72,1.117c1.285-0.029,2.547,0.127,2.678-1.745
		c0.032-0.453,0.642-0.815,1.181-0.231c1.471,1.594,2.051,1.807,4.451,1.669c0.201-0.012,0.497-0.084,0.59,0.018
		C354.949,249.128,357.057,248.797,358.276,250.163z"/>
	<path fill="#2E3130" d="M335.83,244.889c-1.143-1.975-0.908-4.105-0.695-6.231c0.207,0.01,0.424-0.017,0.618,0.038
		c0.285,0.08,0.555,0.219,0.831,0.333c-0.947,1.987,1.582,2.735,1.564,4.376c-0.012,1.161-1.972,0.183-1.813,1.59
		C336.122,245.168,335.956,245.123,335.83,244.889z"/>
	<path fill="#292B2A" d="M336.312,268.78c0.288,0.022,0.579,0.024,0.862,0.073c0.174,0.03,0.487,0.173,0.481,0.196
		c-0.101,0.374-0.421,0.368-0.677,0.251c-0.247-0.113-0.439-0.346-0.655-0.526L336.312,268.78z"/>
	<path fill="#2E3030" d="M289.876,347.326c0.043-0.08,0.101-0.234,0.127-0.229c0.19,0.038,0.144,0.127-0.13,0.226L289.876,347.326z"
		/>
	<path fill="#C3C4BF" d="M466.838,354.882c-0.055,0.065-0.11,0.129-0.165,0.194c-0.041-0.075-0.119-0.154-0.113-0.225
		c0.006-0.069,0.099-0.131,0.155-0.195C466.755,354.731,466.796,354.807,466.838,354.882z"/>
	<path fill="#C3C4BF" d="M478.9,339.763c-0.075-0.046-0.219-0.11-0.213-0.135c0.046-0.181,0.137-0.136,0.233,0.125L478.9,339.763z"
		/>
	<path fill="#C3C4BF" d="M472.009,346.055c-0.077-0.045-0.226-0.103-0.221-0.132c0.036-0.188,0.127-0.145,0.228,0.122
		L472.009,346.055z"/>
	<path fill="#444543" d="M189.373,170.194c0.394,0.098,0.805,0.153,1.179,0.302c1.192,0.475,1.359,1.12,0.294,1.963
		c-0.315,0.249-0.564,0.581-0.844,0.876C188.416,172.564,188.684,171.421,189.373,170.194z"/>
	<path fill="#444543" d="M183.883,176.069c-0.157,0.327-0.442,0.36-0.732,0.263c-0.309-0.103-0.489-0.355-0.329-0.666
		c0.065-0.127,0.338-0.229,0.498-0.208C183.639,175.501,183.85,175.723,183.883,176.069z"/>
	<path fill="#444543" d="M194.402,168.919c-1.562,1.236-3.37,0.457-5.063,0.618c0.958-0.584,2.24-0.264,3.103-1.114
		C192.972,169.08,193.734,168.814,194.402,168.919z"/>
	<path fill="#404240" d="M244.003,239.265c-1.771,0.651-3.012,2.309-4.966,2.611c0.155-0.604,0.323-1.18,0.12-1.837
		c-0.222-0.718,0.138-1.349,0.889-1.301c1.46,0.093,2.23-0.965,3.239-1.654c0.612-0.418,0.821-2.085,2.182-0.586
		c0.251,0.276,1.763-0.906,1.068-2.237c0.389,0.071,0.78,0.131,1.167,0.216c0.591,0.13,1.036-0.125,1.099-0.672
		c0.076-0.655-0.516-0.726-1.011-0.802l0.003,0.003c-0.42-1.048-0.502-2.152,1.031-1.41c1.481,0.717,1.929-0.436,1.829-1.046
		c-0.166-1.007,0.905-2.53-0.988-3.078c-0.535-0.155-0.508-0.895-0.051-1.288c1.008-0.866-0.041-1.719,0.051-2.57
		c1.345,0.699,1.949,2.07,2.737,3.217c1.4,2.037,1.061,3.902-0.745,5.728c-0.497,0.503-1.13,0.891-1.385,1.605
		c-2.091,1.702-4.183,3.404-6.274,5.106L244.003,239.265z"/>
	<path fill="#494B47" d="M239.073,241.87c-4.223,3.149-8.998,5.422-13.346,8.376c-0.466,0.316-1.196,0.244-1.804,0.351
		c0.346-0.668,1.378-0.942,1-2.05c-0.18-0.529,0.402-0.872,0.888-1.09l-0.011-0.009c0.124,0.636,0.312,1.394,1.139,0.88
		c1.037-0.644,2.099-1.375,2.845-2.311c0.406-0.509,0.318-1.182,1.119-0.45c0.4,0.365,0.845,0.128,1.03-0.224
		c0.67-1.276,1.367-2.429,3.119-1.988c0.055,0.014,0.209-0.124,0.216-0.2C235.568,239.845,237.855,242.438,239.073,241.87z"/>
	<path fill="#2C2E2E" d="M228.457,257.437c0.375,0.036,0.749,0.073,1.124,0.109c0.794,0.941,1.903,0.443,2.864,0.626
		c0.229,0.044,0.348,0.215,0.199,0.389c-0.112,0.13-0.365,0.139-0.555,0.201c-0.207,0.378-0.417,0.379-0.63,0.005l-0.313-0.001
		c0,0-0.313,0.001-0.312,0.001c-0.513-0.06-1.067-0.017-1.531-0.201c-1.091-0.432-1.822-0.189-2.186,0.941
		c-0.212,0.659-0.538,1.145-1.314,0.989c-0.541-0.109-0.954-0.45-1.006-1.028c-0.065-0.717,0.48-1.104,0.961-1.493
		C226.559,257.327,227.553,257.598,228.457,257.437z"/>
	<path fill="#5B5A57" d="M222.077,241.191c-0.007,0.808-0.014,1.616-0.02,2.424c-0.432,0.506-1.037,0.93-1.02-0.139
		C221.051,242.689,221.16,241.687,222.077,241.191z"/>
	<path fill="#5B5A57" d="M223.27,239.274c-0.001,0.892-0.507,1.47-1.201,1.932c-0.002-0.637-0.004-1.274-0.006-1.912
		C222.466,239.288,222.868,239.281,223.27,239.274z"/>
	<path fill="#404240" d="M248.246,229.337c-0.072,0.019-0.187,0.075-0.208,0.051c-0.051-0.059-0.057-0.156-0.082-0.237
		c0.072-0.019,0.188-0.076,0.209-0.051C248.216,229.158,248.222,229.255,248.246,229.337z"/>
	<polygon fill="#404240" points="246.534,234.262 246.29,234.127 246.398,234.018 	"/>
	<path fill="#404240" d="M247.789,233.004c-0.044,0.081-0.104,0.236-0.13,0.231c-0.192-0.04-0.145-0.13,0.133-0.228L247.789,233.004
		z"/>
	<path fill="#494B47" d="M225.811,247.458c0-0.213,0-0.425,0-0.638l-0.01,0.01c0.078,0.147,0.171,0.29,0.221,0.446
		c0.01,0.03-0.144,0.114-0.222,0.173C225.8,247.449,225.811,247.458,225.811,247.458z"/>
	<path fill="#494B47" d="M225.811,246.82c-0.08-0.043-0.235-0.1-0.23-0.125c0.038-0.188,0.125-0.14,0.22,0.135
		C225.802,246.83,225.811,246.82,225.811,246.82z"/>
	<path fill="#434440" d="M269.841,250.786c-1.057,1.577-2.544,2.737-3.895,4.029c-1.59,0.676-3.061,1.557-4.447,2.584l0.009,0
		c-3.164,1.118-6.009,3.022-9.317,3.785c-0.065-2.024,2.426-1.357,2.931-2.782c2.409-0.157,3.997-2.481,6.522-2.267
		c-0.336-1.351-1.665-0.635-2.483-1.603c2.894-0.422,6.247,0.73,7.565-3.037c-0.167-0.55-1.411-0.144-1.433-1.217
		c0.78-0.586,1.729-0.189,2.595-0.316c0.73-0.432,1.37-1.454,2.347-0.667C270.97,249.887,270.007,250.288,269.841,250.786z"/>
	<path fill="#454644" d="M269.841,250.786c0.1-0.745,0.557-1.892-0.946-0.863c-0.345,0.236-0.652,0.487-1.006,0.039
		c-0.136-1.025,0.951-1.553,1.037-2.451c-0.134-0.274-0.301-0.273-0.547-0.245c-0.677,0.077-1.388,1.144-1.902,0.42
		c-0.556-0.782,0.075-1.422,0.991-1.803c0.45-0.187,0.111-0.696-0.235-0.969c0.755-2.014,1.926-1.492,3.171-0.521
		C273.12,246.881,272.974,248.543,269.841,250.786z"/>
	<path fill="#333535" d="M231.457,258.766c0.21-0.002,0.42-0.003,0.63-0.005c0.047,0.305,0.076,0.614,0.145,0.914
		c0.1,0.438,0.132,0.878-0.457,0.88c-0.587,0.002-0.564-0.435-0.463-0.875C231.381,259.381,231.41,259.071,231.457,258.766z"/>
	<path fill="#434440" d="M256.933,256.71c-0.235-0.105-0.401-0.179-0.567-0.252c0.189-0.214,0.353-0.466,0.582-0.623
		c0.078-0.054,0.318,0.127,0.484,0.201C257.263,256.265,257.094,256.494,256.933,256.71z"/>
	<path fill="#454644" d="M266.013,244.917c0.413-0.003,0.825-0.006,1.238-0.008C266.842,245.565,266.43,245.562,266.013,244.917z"/>
	<path fill="#3F4140" d="M180.574,231.753c-0.207,0.209-0.415,0.418-0.622,0.626c-0.418,0.208-0.835,0.416-1.253,0.624
		c-0.208-0.212-0.393-0.446-0.63-0.628C178.738,231.495,179.706,231.827,180.574,231.753z"/>
	<path fill="#383B3A" d="M181.838,228.606c0.628,0.002,1.255,0.003,1.883,0.005C183.092,229.39,182.464,229.393,181.838,228.606z"/>
	<path fill="#383B3A" d="M181.837,227.352c0.006-0.17,0.032-0.337,0.079-0.499c0.695,0.427,0.434,0.787-0.078,1.129
		C181.837,227.772,181.837,227.562,181.837,227.352z"/>
	<path fill="#3F4140" d="M183.092,230.492c-0.208,0-0.417,0-0.625,0c-0.219-0.155-0.264-0.379-0.064-0.44
		C182.748,229.944,182.941,230.216,183.092,230.492z"/>
	<path fill="#383B3A" d="M178.07,232.375c0.21,0.209,0.42,0.419,0.63,0.628C178.49,232.794,178.28,232.584,178.07,232.375z"/>
	<polygon fill="#3F4140" points="187.49,226.724 187.355,226.966 187.248,226.859 	"/>
	<polygon fill="#3F4140" points="187.49,226.724 187.625,226.481 187.733,226.589 	"/>
	<path fill="#5B5A57" d="M224.017,238.073c-0.036,0.528-0.271,0.932-0.741,1.189C223.243,238.691,223.441,238.263,224.017,238.073z"
		/>
	<path fill="#313333" d="M247.793,342.931c0.674,1.593-0.249,2.909-0.749,4.298c-0.292-0.089-0.622-0.117-0.869-0.274
		c-2.159-1.368-2.155-1.375-4.372-0.044c-0.773-0.765-0.93-2.122-2.56-2.3c0.552-0.241,0.742-0.406,0.899-0.379
		c1.547,0.264,1.371,0.064,2.801-1.125c0.728-0.606,0.521-1.919,1.708-1.962c0.605-0.022,1.646-0.508,1.192,0.881
		c-0.526,1.609-0.035,1.666,1.14,0.797C247.284,342.6,247.557,342.646,247.793,342.931z"/>
	<path fill="#313333" d="M218.833,355.448c0.609-0.178,1.354-0.399,1.488,0.476c0.368,2.413,2.028,4.135,3.111,6.165
		c0.281,0.527,0.686,1.081,0.171,1.716c-1.312-0.151-1.311-1.433-1.883-2.209c-0.934,0.095-1.479,1.21-2.536,0.911
		c-0.511-0.758,0.116-1.112,0.535-1.539c0.317-0.323,0.524-0.88,0.197-1.086c-1.861-1.168-0.637-3.009-1.069-4.473
		C218.847,355.407,218.833,355.448,218.833,355.448z"/>
	<path fill="#313333" d="M222.84,358.45c-0.604-0.082-0.4-0.566-0.453-0.91c-0.084-0.55-0.004-1.078,0.691-1.033
		c0.42,0.027,0.669,0.444,0.653,0.875C223.711,357.94,223.371,358.291,222.84,358.45z"/>
	<path fill="#313333" d="M240.793,339.724c0.348,0.097,0.875,0.011,0.876,0.537c0.001,0.432-0.426,0.617-0.787,0.783l-0.003-0.003
		c-0.02-0.448-0.04-0.896-0.06-1.344C240.819,339.698,240.793,339.724,240.793,339.724z"/>
	<path fill="#313333" d="M244.759,348.049c-0.283-0.098-0.565-0.196-0.848-0.294c0.521-0.58,0.592,0.123,0.849,0.297
		C244.761,348.053,244.759,348.049,244.759,348.049z"/>
	<path fill="#313333" d="M249.049,342.297c0.277,0.152,0.551,0.347,0.442,0.695c-0.063,0.201-0.289,0.155-0.445-0.065
		C249.047,342.718,249.048,342.507,249.049,342.297z"/>
	<path fill="#313333" d="M242.176,348.603c-0.267-0.079-0.533-0.158-0.8-0.236c0.463-0.577,0.557,0.047,0.784,0.241
		C242.16,348.608,242.176,348.603,242.176,348.603z"/>
	<path fill="#313333" d="M245.492,340.121c-0.076,0.041-0.155,0.12-0.226,0.113c-0.069-0.006-0.131-0.1-0.196-0.155
		C245.234,339.9,245.374,339.914,245.492,340.121z"/>
	<path fill="#313333" d="M236.583,343.729c0.019,0.072,0.075,0.187,0.051,0.208c-0.059,0.051-0.156,0.057-0.237,0.081
		c-0.019-0.073-0.075-0.187-0.051-0.209C236.405,343.759,236.502,343.753,236.583,343.729z"/>
	<polygon fill="#313333" points="243.393,339.787 243.634,339.921 243.527,340.028 	"/>
	<path fill="#313333" d="M240.882,341.045c-0.045,0.08-0.106,0.233-0.134,0.228c-0.191-0.039-0.145-0.13,0.131-0.231
		L240.882,341.045z"/>
	<polygon fill="#313333" points="237.112,347.325 236.978,347.565 236.871,347.459 	"/>
	<polygon fill="#313333" points="237.112,347.325 237.246,347.084 237.352,347.19 	"/>
	<path fill="#313333" d="M239.054,349.254c-0.086-0.047-0.249-0.103-0.245-0.14c0.024-0.201,0.118-0.151,0.229,0.142
		C239.038,349.257,239.054,349.254,239.054,349.254z"/>
	<polygon fill="#E3E4E0" points="261.609,258.131 261.475,258.371 261.368,258.265 	"/>
	<polygon fill="#E3E4E0" points="263.493,258.131 263.359,258.371 263.253,258.265 	"/>
	<path fill="#4B4D4C" d="M238.129,315.748c-0.075,0.171-0.112,0.436-0.236,0.486c-0.121,0.049-0.425-0.086-0.473-0.208
		c-0.048-0.122,0.085-0.425,0.208-0.473C237.75,315.504,237.958,315.673,238.129,315.748z"/>
	<path fill="#292B2B" d="M356.44,231.821c-1.066-2.125-2.754-0.79-4.207-0.764c0.481-3.028,0.481-3.028-2.783-3.092
		c-0.136,0.954,1.324,0.572,1.24,1.493c-0.083,0.919-1.381,1.612-0.498,2.703c-0.942,0.103-1.894,0.944-2.801-0.209
		c-0.734-0.933-1.382-0.884-1.612,0.425c-1.726,0.016-2.498-0.784-2.175-2.533c0.112-0.609,0.2-1.223,0.299-1.835
		c1.198-1.428,2.829-1.867,4.59-2.095c2.437-0.315,4.952-0.364,7.17-1.595c0.79-0.439,1.152-0.092,1.452,0.49
		c0.642,1.245,1.691,2.076,2.765,2.901c1.151,0.884,1.656,2.119,1.713,3.524c0.062,1.538-0.875,2.323-2.362,1.881
		C358.258,232.827,357.367,232.262,356.44,231.821z"/>
	<path fill="#383937" d="M323.795,254.363c0.102-1.175,1.155-1.653,1.799-2.426c0.456-0.548,0.985-0.956,0.769-1.855
		c-0.191-0.793-0.056-0.826,1.128-0.794c0.372,0.234,0.419,0.52,0.141,0.86c-0.035,2.086-0.057,4.173-0.108,6.258
		c-0.055,2.265-0.586,2.66-3.103,2.363c-0.256,0.201-0.448,0.14-0.586-0.143c-0.383-0.487-0.857-0.93-0.789-1.634
		c0.99-0.667,1.98-1.334,0.747-2.632L323.795,254.363z"/>
	<path fill="#383A38" d="M327.631,250.148c-0.047-0.286-0.093-0.573-0.14-0.86c-0.278-2.884,0.357-5.775-0.047-8.666
		c-0.124,0.041-0.29,0.05-0.31,0.109c-0.299,0.879-0.504,1.926-1.794,1.6c-1.506-0.38,0.163-1.449-0.369-2.291
		c-0.279-0.442,0.872-1.489,2.035-1.04c0.381,0.147,0.801,0.195,1.203,0.288c0.36,1.426-0.105,2.933,0.425,4.342
		c-0.75,2.033-0.452,4.147-0.486,6.236C327.972,249.954,327.8,250.048,327.631,250.148z"/>
	<path fill="#383A38" d="M328.26,238.827c0.013-0.723,0.026-1.445,0.04-2.169c0.756,0.513,0.185,1.318,0.427,1.944
		c0,0,0.018-0.039,0.018-0.039C328.576,238.639,328.414,238.727,328.26,238.827z"/>
	<path fill="#DFE0DC" d="M323.834,258.627c0.195,0.048,0.391,0.096,0.586,0.143C324.128,259.116,323.951,258.992,323.834,258.627z"
		/>
	<path fill="#383A38" d="M326.32,237.427c0.251,0.035,0.604,0.002,0.578,0.345c-0.007,0.096-0.482,0.202-0.747,0.219
		c-0.159,0.01-0.479-0.175-0.47-0.222C325.747,237.432,326.054,237.453,326.32,237.427z"/>
	<path fill="#383937" d="M323.792,254.36c-0.089,0.346,0.094,0.897-0.586,0.795c-0.08-0.012-0.194-0.126-0.206-0.206
		c-0.102-0.681,0.451-0.495,0.796-0.586L323.792,254.36z"/>
	<path fill="#292B2B" d="M346.716,233.578c-0.148,0.212-0.42,0.812-0.575,0.783c-0.544-0.1-0.667-0.647-0.643-1.144
		c0.014-0.284,0.181-0.56,0.28-0.84C346.237,232.59,346.646,232.847,346.716,233.578z"/>
	<polygon fill="#E5E6E1" points="247.79,237.402 247.924,237.162 248.031,237.268 	"/>
	<path fill="#D9DCDA" d="M259.093,246.822c-0.209,0.208-0.419,0.415-0.628,0.622C258.674,247.237,258.883,247.029,259.093,246.822z"
		/>
	<polygon fill="#E5E6E1" points="247.162,238.031 247.028,238.271 246.921,238.165 	"/>
	<path fill="#252726" d="M425.449,356.348c-0.148,0.182-0.305,0.364-0.468,0.543c-0.063-1.011-0.751-1.913-0.327-3.037
		c0.239-0.628-0.459-0.776-0.977-0.873c-0.097,1.087,0.264,2.33-1.507,3.078c0.399-1.31-0.323-2.701,1.495-3.103
		c0.038-0.936-0.87-1.696-0.308-2.688c-1.181-0.236-1.137,1.332-2.139,1.093c-0.383-0.094-0.688-0.107-0.933,0.43
		c-1.379,3.037-1.768,3.426-4.391,4.868c-0.283,0.283-0.537,0.603-0.851,0.842c-1.014,0.773-1.426,0.399-1.379-0.766
		c0.518,0.066,0.873-0.129,1.171-0.415c-0.069-0.009-0.141-0.031-0.214-0.066c-0.11-0.192-0.188-0.402-0.258-0.612
		c-0.044-0.232-0.097-0.468-0.173-0.688c-0.163-0.518-0.481-0.936-0.892-1.291c-0.11-0.11-0.198-0.217-0.27-0.327
		c0.009,0.292,0.006,0.584-0.003,0.879c-1.322-0.236-2.352-0.556-1.068-2.161c0.352-0.437,0.336-1.171,0.487-1.768
		c0.198,0.49,0.339,0.986,0.43,1.492c0.185-0.688,0.546-1.376,0.402-2.063c0.11-5.022-0.879-9.84-2.783-14.472
		c-0.317-0.44-0.694-0.817-1.14-1.128c-3.593-1.457-4.859-1.159-6.884,1.646c-0.487,2.619-1.511,5.091-1.972,7.717
		c0.057,0.496,0.163,0.999-0.261,1.394c-0.537,0.367-0.992,0.823-1.338,1.382c-0.144,0.223-0.28,0.452-0.393,0.694
		c-0.192,0.364-0.377,0.732-0.531,1.112c-0.107,0.258-0.204,0.524-0.27,0.798c-1.197,2.695-2.5,5.33-4.453,8.153
		c-0.27-4.249,0.025-7.993-0.21-11.724c-0.038-0.28-0.085-0.553-0.166-0.823c-0.314-0.879-0.459-1.771-0.229-2.692
		c0.028-0.264,0.038-0.528,0.013-0.791c-0.126-0.669-0.044-1.328,0.082-1.985c0.025-0.276,0.025-0.556-0.013-0.829
		c-0.512-1.778-1.234-3.48-1.891-5.201c-0.524-0.917-1.222-1.674-2.092-2.264c-0.27-0.145-0.553-0.261-0.851-0.33
		c-0.952-0.192-1.884-0.129-2.786,0.248c-0.443,0.214-0.854,0.484-1.215,0.82c-1.363,3.857-0.999,7.679,0.201,11.488
		c0.119,0.832,0.512,1.661,0.047,2.503c-0.013,0.214-0.025,0.427-0.038,0.641c-0.003,0.835-0.006,1.674-0.009,2.509
		c-0.87,1.473-1.011,2.94,0.031,4.397c0.182,0.415,0.188,0.829,0.022,1.247c0.006,0.204,0.016,0.411,0.025,0.616
		c0.207,0.901,0.531,1.796,0.603,2.71c0.352,4.45,1.219,8.762,3.188,12.804c0.214,2.17,1.523,3.398,3.561,3.671
		c2.28,0.308,4.328-0.163,5.484-2.531c2.861-5.87,5.493-11.837,7.754-17.971c0.1-0.28,0.1-0.587,0.082-0.873
		c-0.21,0.113-0.421,0.226-0.631,0.336c-0.053-0.864,0.286-1.561,0.832-2.23c0.474,0.512,0.487,1.024,0.452,1.548
		c-0.166,0.088-0.336,0.176-0.502,0.267c0.006,0.057,0.009,0.116,0.013,0.176c0.267,4.262,1.404,8.335,2.729,12.368
		c0.308,0.666,0.622,1.325,0.823,2.029c0.088,0.273,0.179,0.546,0.295,0.807c0.572,1.479,1.112,2.968,2.019,4.281
		c0.298,0.361,0.647,0.666,1.055,0.901c4.268,1.489,5.926,0.751,7.183-3.561c0.857-2.94,2.214-5.581,3.916-8.087
		c0.986-1.454,2.136-2.833,2.494-4.629C425.481,356.696,425.456,356.523,425.449,356.348z M388.428,331.056
		c-0.003,0.003-0.003,0.009-0.006,0.013l-0.006-0.006C388.418,331.059,388.424,331.059,388.428,331.056
		c0.05-0.091,0.107-0.245,0.141-0.239C388.767,330.849,388.716,330.946,388.428,331.056z M392.177,338.883
		c0.003,0.807,0.003,1.614,0.006,2.421C391.713,340.497,391.559,339.69,392.177,338.883z M392.184,341.405
		c0.003,0.992,0.006,1.982,0.013,2.974C391.7,343.389,391.64,342.397,392.184,341.405z M398.653,348.081
		c-0.091-0.59,0.003-1.093,0.631-1.35C399.335,347.303,399.159,347.771,398.653,348.081z M401.913,344.938
		c-0.223,0.722-1.03,0.405-1.608,0.446c-0.016-0.515,0.104-0.961,0.597-1.228C401.351,344.291,402.14,344.215,401.913,344.938z
		 M409.617,335.5c-0.298-0.038-0.465-0.207-0.509-0.503c0.148-0.286,0.345-0.644,0.691-0.408
		C410.337,334.954,410.07,335.274,409.617,335.5z M413.562,355.497c0.446,0.185,0.465,0.393,0.028,0.622
		C413.581,355.911,413.571,355.704,413.562,355.497z"/>
	<path fill="#252726" d="M384.15,354.225c0.006,0.204,0.016,0.411,0.025,0.616c-0.201-0.129-0.27-0.264-0.21-0.402
		c0.028-0.072,0.06-0.122,0.091-0.16C384.087,354.243,384.119,354.225,384.15,354.225z"/>
	<path fill="#252726" d="M384.106,346.071c-0.173-0.154-0.223-0.298-0.154-0.437c0.035-0.069,0.066-0.119,0.097-0.154
		c0.003,0,0.003-0.003,0.006-0.006c0.028-0.028,0.06-0.044,0.088-0.044C384.131,345.644,384.119,345.858,384.106,346.071z"/>
	<polygon fill="#252726" points="388.415,331.062 388.428,331.056 388.421,331.069 	"/>
	<path fill="#252726" d="M388.428,331.056c0.05-0.091,0.107-0.245,0.141-0.239C388.767,330.849,388.716,330.946,388.428,331.056z"/>
	<path fill="#252726" d="M392.184,341.304c-0.471-0.807-0.625-1.614-0.006-2.421C392.181,339.69,392.181,340.497,392.184,341.304z"
		/>
	<path fill="#252726" d="M392.184,341.405c0.003,0.992,0.006,1.982,0.013,2.974C391.7,343.389,391.64,342.397,392.184,341.405z"/>
	<path fill="#252726" d="M399.285,346.731c0.05,0.572-0.126,1.04-0.631,1.35C398.562,347.491,398.657,346.989,399.285,346.731z"/>
	<path fill="#252726" d="M401.913,344.938c-0.223,0.722-1.03,0.405-1.608,0.446c-0.016-0.515,0.104-0.961,0.597-1.228
		C401.351,344.291,402.14,344.215,401.913,344.938z"/>
	<path fill="#252726" d="M405.048,350.757c0.474,0.512,0.487,1.024,0.452,1.548c-0.166,0.088-0.336,0.176-0.502,0.267
		c-0.035-0.462-0.122-0.895-0.122-0.911c-0.157,0.129-0.063,0.528-0.028,0.989c-0.21,0.113-0.421,0.226-0.631,0.336
		C404.162,352.123,404.501,351.426,405.048,350.757z"/>
	<path fill="#252726" d="M409.617,335.5c-0.298-0.038-0.465-0.207-0.509-0.503c0.148-0.286,0.345-0.644,0.691-0.408
		C410.337,334.954,410.07,335.274,409.617,335.5z"/>
	<path fill="#252726" d="M413.031,353.336c0.009,0.292,0.006,0.584-0.003,0.879c-1.322-0.236-2.352-0.556-1.068-2.161
		c0.352-0.437,0.336-1.171,0.487-1.768c0.198,0.49,0.339,0.986,0.43,1.492C412.733,352.299,412.689,352.818,413.031,353.336z"/>
	<path fill="#252726" d="M413.59,356.118c-0.009-0.207-0.019-0.415-0.028-0.622C414.008,355.682,414.027,355.889,413.59,356.118z"/>
	<path fill="#252726" d="M423.468,353.176c0.066-0.063,0.138-0.129,0.21-0.195c-0.097,1.087,0.264,2.33-1.507,3.078
		c0.399-1.31-0.323-2.701,1.495-3.103c0.038-0.936-0.87-1.696-0.308-2.688c-1.181-0.236-1.137,1.332-2.139,1.093
		c-0.383-0.094-0.688-0.107-0.933,0.43c-1.379,3.037-1.768,3.426-4.391,4.868c-0.283,0.283-0.537,0.603-0.851,0.842
		c-1.014,0.773-1.426,0.399-1.379-0.766c0.518,0.066,0.873-0.129,1.171-0.415c0.389,0.06,0.685-0.204,1.005-0.38
		c0.035-0.019,0.066-0.038,0.1-0.053c0.148-0.101,0.292-0.204,0.433-0.311c1.363-1.014,2.44-2.283,3.213-3.806
		c0.188-0.377,0.314-0.813,0.697-0.98c1.014-0.443,1.985-1.677,3.084-1.036c1.071,0.622,0.983,1.931,0.459,3.065
		c-0.05,0.047-0.101,0.094-0.148,0.138c-0.006,0.006-0.013,0.013-0.016,0.016C423.593,353.041,423.527,353.11,423.468,353.176z"/>
	<path fill="#252726" d="M425.449,356.348c-0.148,0.182-0.305,0.364-0.468,0.543c-0.063-1.011-0.751-1.913-0.327-3.037
		c0.239-0.628-0.459-0.776-0.977-0.873v-0.003c0.072-0.066,0.145-0.135,0.214-0.204
		C426.253,353.232,425.396,354.969,425.449,356.348z"/>
</g>
<text transform="matrix(1 0 0 1 578.5789 542.4209)" font-family="'Ayuthaya'" font-size="48">Life is Elsewhere</text>
</svg>
